<?xml version="1.0" encoding="UTF-8" standalone="no"?>
<!DOCTYPE svg PUBLIC "-//W3C//DTD SVG 1.1//EN"
 "http://www.w3.org/Graphics/SVG/1.1/DTD/svg11.dtd">
<!-- Generated by graphviz version 2.40.1 (20161225.0304)
 -->
<!-- Title: G Pages: 1 -->
<svg width="405pt" height="365pt"
 viewBox="0.00 0.00 405.35 365.00" xmlns="http://www.w3.org/2000/svg" xmlns:xlink="http://www.w3.org/1999/xlink">
<g id="graph0" class="graph" transform="scale(1 1) rotate(0) translate(4 361)">
<title>G</title>
<polygon fill="#ffffff" stroke="transparent" points="-4,4 -4,-361 401.3466,-361 401.3466,4 -4,4"/>
<!-- start -->
<g id="node1" class="node">
<title>start</title>
<ellipse fill="none" stroke="#000000" cx="100.3466" cy="-339" rx="27" ry="18"/>
<text text-anchor="middle" x="100.3466" y="-335.3" font-family="Times,serif" font-size="14.00" fill="#000000">∅</text>
</g>
<!-- Const -->
<g id="node2" class="node">
<title>Const</title>
<ellipse fill="none" stroke="#000000" cx="38.3466" cy="-207" rx="38.1938" ry="18"/>
<text text-anchor="middle" x="38.3466" y="-203.3" font-family="Times,serif" font-size="14.00" fill="#000000">Const</text>
</g>
<!-- start&#45;&gt;Const -->
<g id="edge1" class="edge">
<title>start&#45;&gt;Const</title>
<path fill="none" stroke="#000000" d="M75.7536,-331.221C62.4725,-325.628 47.2225,-316.628 39.3466,-303 27.4862,-282.4776 28.4944,-255.1311 31.7339,-234.8754"/>
<polygon fill="#000000" stroke="#000000" points="35.1823,-235.4751 33.575,-225.0029 28.301,-234.1918 35.1823,-235.4751"/>
<text text-anchor="start" x="39.3466" y="-276.8" font-family="Times,serif" font-size="14.00" fill="#000000">.constByValue</text>
<text text-anchor="start" x="39.3466" y="-261.8" font-family="Times,serif" font-size="14.00" fill="#000000">.constByNeed</text>
</g>
<!-- FromThunk -->
<g id="node3" class="node">
<title>FromThunk</title>
<ellipse fill="none" stroke="#000000" cx="163.3466" cy="-207" rx="65.7887" ry="18"/>
<text text-anchor="middle" x="163.3466" y="-203.3" font-family="Times,serif" font-size="14.00" fill="#000000">FromThunk</text>
</g>
<!-- start&#45;&gt;FromThunk -->
<g id="edge2" class="edge">
<title>start&#45;&gt;FromThunk</title>
<path fill="none" stroke="#000000" d="M119.5121,-326.2917C127.3855,-320.1415 135.9124,-312.1118 141.3466,-303 153.6703,-282.3361 159.0931,-255.3848 161.478,-235.3008"/>
<polygon fill="#000000" stroke="#000000" points="164.9741,-235.5139 162.4919,-225.214 158.0092,-234.8138 164.9741,-235.5139"/>
<text text-anchor="start" x="161.3466" y="-291.8" font-family="Times,serif" font-size="14.00" fill="#000000">.apply</text>
<text text-anchor="start" x="161.3466" y="-276.8" font-family="Times,serif" font-size="14.00" fill="#000000">.callback</text>
<text text-anchor="start" x="161.3466" y="-261.8" font-family="Times,serif" font-size="14.00" fill="#000000">.props</text>
<text text-anchor="start" x="161.3466" y="-246.8" font-family="Times,serif" font-size="14.00" fill="#000000">.state</text>
</g>
<!-- FromThunk&#45;&gt;FromThunk -->
<g id="edge3" class="edge">
<title>FromThunk&#45;&gt;FromThunk</title>
<path fill="none" stroke="#000000" d="M219.6396,-216.3178C235.1432,-215.8676 246.9908,-212.7617 246.9908,-207 246.9908,-202.5887 240.046,-199.7341 229.8326,-198.4364"/>
<polygon fill="#000000" stroke="#000000" points="229.8706,-194.9297 219.6396,-197.6822 229.3541,-201.9106 229.8706,-194.9297"/>
<text text-anchor="middle" x="314.9908" y="-203.3" font-family="Times,serif" font-size="14.00" fill="#000000">.map[B](f: A =&gt; B)</text>
</g>
<!-- FromThunkReusability -->
<g id="node4" class="node">
<title>FromThunkReusability</title>
<ellipse fill="none" stroke="#000000" cx="163.3466" cy="-105" rx="117.7793" ry="18"/>
<text text-anchor="middle" x="163.3466" y="-101.3" font-family="Times,serif" font-size="14.00" fill="#000000">FromThunkReusability</text>
</g>
<!-- FromThunk&#45;&gt;FromThunkReusability -->
<g id="edge4" class="edge">
<title>FromThunk&#45;&gt;FromThunkReusability</title>
<path fill="none" stroke="#000000" d="M163.3466,-188.7644C163.3466,-173.317 163.3466,-150.9149 163.3466,-133.164"/>
<polygon fill="#000000" stroke="#000000" points="166.8467,-133.0776 163.3466,-123.0777 159.8467,-133.0777 166.8467,-133.0776"/>
<text text-anchor="start" x="163.3466" y="-159.8" font-family="Times,serif" font-size="14.00" fill="#000000">.withReuse</text>
<text text-anchor="start" x="163.3466" y="-144.8" font-family="Times,serif" font-size="14.00" fill="#000000">.withoutReuse</text>
</g>
<!-- Px -->
<g id="node5" class="node">
<title>Px</title>
<ellipse fill="none" stroke="#000000" cx="48.3466" cy="-18" rx="27" ry="18"/>
<text text-anchor="middle" x="48.3466" y="-14.3" font-family="Times,serif" font-size="14.00" fill="#000000">Px</text>
</g>
<!-- FromThunkReusability&#45;&gt;Px -->
<g id="edge5" class="edge">
<title>FromThunkReusability&#45;&gt;Px</title>
<path fill="none" stroke="#000000" d="M99.3891,-89.787C87.6329,-84.6989 76.2734,-77.946 67.3466,-69 61.0834,-62.7234 56.859,-54.1952 54.0201,-45.9096"/>
<polygon fill="#000000" stroke="#000000" points="57.3248,-44.7365 51.2007,-36.0909 50.5967,-46.6686 57.3248,-44.7365"/>
<text text-anchor="middle" x="113.3466" y="-57.8" font-family="Times,serif" font-size="14.00" fill="#000000">.autoRefresh</text>
</g>
<!-- ThunkM -->
<g id="node6" class="node">
<title>ThunkM</title>
<ellipse fill="none" stroke="#000000" cx="163.3466" cy="-18" rx="50.0912" ry="18"/>
<text text-anchor="middle" x="163.3466" y="-14.3" font-family="Times,serif" font-size="14.00" fill="#000000">ThunkM</text>
</g>
<!-- FromThunkReusability&#45;&gt;ThunkM -->
<g id="edge6" class="edge">
<title>FromThunkReusability&#45;&gt;ThunkM</title>
<path fill="none" stroke="#000000" d="M163.3466,-86.9735C163.3466,-75.1918 163.3466,-59.5607 163.3466,-46.1581"/>
<polygon fill="#000000" stroke="#000000" points="166.8467,-46.0033 163.3466,-36.0034 159.8467,-46.0034 166.8467,-46.0033"/>
<text text-anchor="middle" x="219.8466" y="-57.8" font-family="Times,serif" font-size="14.00" fill="#000000">.manualRefresh</text>
</g>
<!-- Var -->
<g id="node7" class="node">
<title>Var</title>
<ellipse fill="none" stroke="#000000" cx="299.3466" cy="-18" rx="27" ry="18"/>
<text text-anchor="middle" x="299.3466" y="-14.3" font-family="Times,serif" font-size="14.00" fill="#000000">Var</text>
</g>
<!-- FromThunkReusability&#45;&gt;Var -->
<g id="edge7" class="edge">
<title>FromThunkReusability&#45;&gt;Var</title>
<path fill="none" stroke="#000000" d="M239.0687,-91.138C252.9659,-85.9458 266.489,-78.8091 277.3466,-69 284.1351,-62.867 288.9136,-54.2751 292.2395,-45.8892"/>
<polygon fill="#000000" stroke="#000000" points="295.5948,-46.8937 295.5099,-36.2992 288.9695,-44.6342 295.5948,-46.8937"/>
<text text-anchor="middle" x="342.3466" y="-57.8" font-family="Times,serif" font-size="14.00" fill="#000000">.manualUpdate</text>
</g>
</g>
</svg>
