<?xml version="1.0" encoding="UTF-8" standalone="no"?>
<!DOCTYPE svg PUBLIC "-//W3C//DTD SVG 1.1//EN"
 "http://www.w3.org/Graphics/SVG/1.1/DTD/svg11.dtd">
<!-- Generated by graphviz version 2.40.1 (20161225.0304)
 -->
<!-- Title: G Pages: 1 -->
<svg width="472pt" height="365pt"
 viewBox="0.00 0.00 472.00 365.00" xmlns="http://www.w3.org/2000/svg" xmlns:xlink="http://www.w3.org/1999/xlink">
<g id="graph0" class="graph" transform="scale(1 1) rotate(0) translate(4 361)">
<title>G</title>
<polygon fill="#ffffff" stroke="transparent" points="-4,4 -4,-361 468,-361 468,4 -4,4"/>
<!-- start -->
<g id="node1" class="node">
<title>start</title>
<ellipse fill="none" stroke="#000000" cx="319" cy="-339" rx="27" ry="18"/>
<text text-anchor="middle" x="319" y="-335.3" font-family="Times,serif" font-size="14.00" fill="#000000">∅</text>
</g>
<!-- FromThunk -->
<g id="node2" class="node">
<title>FromThunk</title>
<ellipse fill="none" stroke="#000000" cx="142" cy="-207" rx="27" ry="18"/>
</g>
<!-- start&#45;&gt;FromThunk -->
<g id="edge2" class="edge">
<title>start&#45;&gt;FromThunk</title>
<path fill="none" stroke="#000000" d="M299.5785,-325.8893C289.736,-319.1606 277.6449,-310.7651 267,-303 232.0446,-277.501 192.581,-246.876 167.5147,-227.1858"/>
<polygon fill="#000000" stroke="#000000" points="169.6158,-224.3855 159.5932,-220.9507 165.2863,-229.886 169.6158,-224.3855"/>
<text text-anchor="start" x="267" y="-291.8" font-family="Times,serif" font-size="14.00" fill="#000000">.apply</text>
<text text-anchor="start" x="267" y="-276.8" font-family="Times,serif" font-size="14.00" fill="#000000">.callback</text>
<text text-anchor="start" x="267" y="-261.8" font-family="Times,serif" font-size="14.00" fill="#000000">.props</text>
<text text-anchor="start" x="267" y="-246.8" font-family="Times,serif" font-size="14.00" fill="#000000">.state</text>
</g>
<!-- Const -->
<g id="node4" class="node">
<title>Const</title>
<ellipse fill="none" stroke="#000000" cx="379" cy="-207" rx="38.1938" ry="18"/>
<text text-anchor="middle" x="379" y="-203.3" font-family="Times,serif" font-size="14.00" fill="#000000">Const</text>
</g>
<!-- start&#45;&gt;Const -->
<g id="edge1" class="edge">
<title>start&#45;&gt;Const</title>
<path fill="none" stroke="#000000" d="M326.844,-321.7433C336.984,-299.4353 354.754,-260.3412 366.6982,-234.064"/>
<polygon fill="#000000" stroke="#000000" points="370.0108,-235.2342 370.9626,-224.6822 363.6382,-232.3376 370.0108,-235.2342"/>
<text text-anchor="start" x="361" y="-276.8" font-family="Times,serif" font-size="14.00" fill="#000000">.constByValue</text>
<text text-anchor="start" x="361" y="-261.8" font-family="Times,serif" font-size="14.00" fill="#000000">.constByNeed</text>
</g>
<!-- FromThunk&#45;&gt;FromThunk -->
<g id="edge3" class="edge">
<title>FromThunk&#45;&gt;FromThunk</title>
<path fill="none" stroke="#000000" d="M165.6146,-216.1461C176.9731,-217.2753 187,-214.2266 187,-207 187,-202.1447 182.4737,-199.1753 176.0584,-198.0918"/>
<polygon fill="#000000" stroke="#000000" points="175.6918,-194.5826 165.6146,-197.8539 175.5323,-201.5808 175.6918,-194.5826"/>
<text text-anchor="middle" x="255" y="-203.3" font-family="Times,serif" font-size="14.00" fill="#000000">.map[B](f: A =&gt; B)</text>
</g>
<!-- FromThunkReusability -->
<g id="node3" class="node">
<title>FromThunkReusability</title>
<ellipse fill="none" stroke="#000000" cx="142" cy="-105" rx="27" ry="18"/>
</g>
<!-- FromThunk&#45;&gt;FromThunkReusability -->
<g id="edge4" class="edge">
<title>FromThunk&#45;&gt;FromThunkReusability</title>
<path fill="none" stroke="#000000" d="M142,-188.7644C142,-173.317 142,-150.9149 142,-133.164"/>
<polygon fill="#000000" stroke="#000000" points="145.5001,-133.0776 142,-123.0777 138.5001,-133.0777 145.5001,-133.0776"/>
<text text-anchor="start" x="142" y="-159.8" font-family="Times,serif" font-size="14.00" fill="#000000">.withReuse</text>
<text text-anchor="start" x="142" y="-144.8" font-family="Times,serif" font-size="14.00" fill="#000000">.withoutReuse</text>
</g>
<!-- Px -->
<g id="node5" class="node">
<title>Px</title>
<ellipse fill="none" stroke="#000000" cx="27" cy="-18" rx="27" ry="18"/>
<text text-anchor="middle" x="27" y="-14.3" font-family="Times,serif" font-size="14.00" fill="#000000">Px</text>
</g>
<!-- FromThunkReusability&#45;&gt;Px -->
<g id="edge5" class="edge">
<title>FromThunkReusability&#45;&gt;Px</title>
<path fill="none" stroke="#000000" d="M115.5247,-101.2293C94.1812,-96.8893 64.7337,-87.774 46,-69 39.7368,-62.7234 35.5124,-54.1952 32.6735,-45.9096"/>
<polygon fill="#000000" stroke="#000000" points="35.9782,-44.7365 29.8541,-36.0909 29.2501,-46.6686 35.9782,-44.7365"/>
<text text-anchor="middle" x="92" y="-57.8" font-family="Times,serif" font-size="14.00" fill="#000000">.autoRefresh</text>
</g>
<!-- ThunkM -->
<g id="node6" class="node">
<title>ThunkM</title>
<ellipse fill="none" stroke="#000000" cx="142" cy="-18" rx="50.0912" ry="18"/>
<text text-anchor="middle" x="142" y="-14.3" font-family="Times,serif" font-size="14.00" fill="#000000">ThunkM</text>
</g>
<!-- FromThunkReusability&#45;&gt;ThunkM -->
<g id="edge6" class="edge">
<title>FromThunkReusability&#45;&gt;ThunkM</title>
<path fill="none" stroke="#000000" d="M142,-86.9735C142,-75.1918 142,-59.5607 142,-46.1581"/>
<polygon fill="#000000" stroke="#000000" points="145.5001,-46.0033 142,-36.0034 138.5001,-46.0034 145.5001,-46.0033"/>
<text text-anchor="middle" x="198.5" y="-57.8" font-family="Times,serif" font-size="14.00" fill="#000000">.manualRefresh</text>
</g>
<!-- Var -->
<g id="node7" class="node">
<title>Var</title>
<ellipse fill="none" stroke="#000000" cx="278" cy="-18" rx="27.0966" ry="18"/>
<text text-anchor="middle" x="278" y="-14.3" font-family="Times,serif" font-size="14.00" fill="#000000">Var</text>
</g>
<!-- FromThunkReusability&#45;&gt;Var -->
<g id="edge7" class="edge">
<title>FromThunkReusability&#45;&gt;Var</title>
<path fill="none" stroke="#000000" d="M169.1122,-102.8131C194.4219,-99.4353 231.8208,-90.8444 256,-69 262.7885,-62.867 267.567,-54.2751 270.8929,-45.8892"/>
<polygon fill="#000000" stroke="#000000" points="274.2482,-46.8937 274.1633,-36.2992 267.6229,-44.6342 274.2482,-46.8937"/>
<text text-anchor="middle" x="322" y="-57.8" font-family="Times,serif" font-size="14.00" fill="#000000">.manualUpdate</text>
</g>
</g>
</svg>
