<?xml version="1.0" encoding="UTF-8" standalone="no"?>
<!DOCTYPE svg PUBLIC "-//W3C//DTD SVG 1.1//EN"
 "http://www.w3.org/Graphics/SVG/1.1/DTD/svg11.dtd">
<!-- Generated by graphviz version 2.47.3 (0)
 -->
<!-- Title: G Pages: 1 -->
<svg width="1042pt" height="266pt"
 viewBox="0.00 0.00 1041.89 265.91" xmlns="http://www.w3.org/2000/svg" xmlns:xlink="http://www.w3.org/1999/xlink">
<g id="graph0" class="graph" transform="scale(1 1) rotate(0) translate(4 261.91)">
<title>G</title>
<polygon fill="white" stroke="transparent" points="-4,4 -4,-261.91 1037.89,-261.91 1037.89,4 -4,4"/>
<!-- extra -->
<g id="node1" class="node">
<title>extra</title>
<ellipse fill="#bcee68" stroke="black" cx="175.6" cy="-239.91" rx="35.19" ry="18"/>
<text text-anchor="middle" x="175.6" y="-236.21" font-family="Times,serif" font-size="14.00">extra</text>
</g>
<!-- testUtil -->
<g id="node2" class="node">
<title>testUtil</title>
<ellipse fill="#bcee68" stroke="black" cx="28.6" cy="-148.43" rx="28.7" ry="18"/>
<text text-anchor="middle" x="28.6" y="-144.73" font-family="Times,serif" font-size="14.00">test</text>
</g>
<!-- extra&#45;&gt;testUtil -->
<g id="edge2" class="edge">
<title>extra&#45;&gt;testUtil</title>
<path fill="none" stroke="black" d="M139.02,-224.54C117.08,-215.11 89.15,-201.63 66.6,-185.91 57.75,-179.74 48.98,-171.5 42.1,-164.42"/>
<polygon fill="black" stroke="black" points="137.75,-227.8 148.33,-228.46 140.47,-221.35 137.75,-227.8"/>
</g>
<!-- monocle2 -->
<g id="node6" class="node">
<title>monocle2</title>
<ellipse fill="#eeee00" stroke="black" cx="175.6" cy="-148.43" rx="100.18" ry="18"/>
<text text-anchor="middle" x="175.6" y="-144.73" font-family="Times,serif" font-size="14.00">extra&#45;ext&#45;monocle2</text>
</g>
<!-- extra&#45;&gt;monocle2 -->
<g id="edge8" class="edge">
<title>extra&#45;&gt;monocle2</title>
<path fill="none" stroke="black" d="M175.6,-211.62C175.6,-196.97 175.6,-179.37 175.6,-166.63"/>
<polygon fill="black" stroke="black" points="172.1,-211.65 175.6,-221.65 179.1,-211.65 172.1,-211.65"/>
</g>
<!-- monocle3 -->
<g id="node7" class="node">
<title>monocle3</title>
<ellipse fill="#eeee00" stroke="black" cx="393.6" cy="-148.43" rx="100.18" ry="18"/>
<text text-anchor="middle" x="393.6" y="-144.73" font-family="Times,serif" font-size="14.00">extra&#45;ext&#45;monocle3</text>
</g>
<!-- extra&#45;&gt;monocle3 -->
<g id="edge9" class="edge">
<title>extra&#45;&gt;monocle3</title>
<path fill="none" stroke="black" d="M211.62,-224.12C251.27,-207.85 314.73,-181.8 355.27,-165.16"/>
<polygon fill="black" stroke="black" points="210.25,-220.9 202.33,-227.94 212.91,-227.38 210.25,-220.9"/>
</g>
<!-- callback -->
<g id="node3" class="node">
<title>callback</title>
<ellipse fill="skyblue" stroke="black" cx="842.6" cy="-239.91" rx="48.19" ry="18"/>
<text text-anchor="middle" x="842.6" y="-236.21" font-family="Times,serif" font-size="14.00">callback</text>
</g>
<!-- core -->
<g id="node4" class="node">
<title>core</title>
<ellipse fill="skyblue" stroke="black" stroke-width="7" cx="770.6" cy="-148.43" rx="39.7" ry="37.45"/>
<text text-anchor="middle" x="770.6" y="-159.73" font-family="Times,serif" font-size="14.00"> </text>
<text text-anchor="middle" x="770.6" y="-144.73" font-family="Times,serif" font-size="14.00"> core </text>
<text text-anchor="middle" x="770.6" y="-129.73" font-family="Times,serif" font-size="14.00"> </text>
</g>
<!-- callback&#45;&gt;core -->
<g id="edge1" class="edge">
<title>callback&#45;&gt;core</title>
<path fill="none" stroke="black" d="M822.98,-214.52C814.09,-203.49 803.52,-190.34 794.21,-178.77"/>
<polygon fill="black" stroke="black" points="820.4,-216.9 829.39,-222.5 825.85,-212.51 820.4,-216.9"/>
</g>
<!-- catsC -->
<g id="node10" class="node">
<title>catsC</title>
<path fill="skyblue" stroke="black" stroke-width="0.5" d="M915.6,-148.43C915.6,-148.43 1003.58,-148.43 1003.58,-148.43 1003.58,-149.02 1003.44,-149.61 1003.16,-150.19 1002.88,-150.78 1002.45,-151.36 1001.89,-151.94 1001.33,-152.52 1000.63,-153.09 999.79,-153.66 998.96,-154.22 997.99,-154.77 996.89,-155.32 995.78,-155.86 994.55,-156.4 993.19,-156.92 991.84,-157.43 990.35,-157.94 988.75,-158.43 987.15,-158.92 985.44,-159.39 983.61,-159.85 981.78,-160.3 979.85,-160.74 977.81,-161.16 975.78,-161.57 973.64,-161.97 971.41,-162.34 969.19,-162.72 966.87,-163.07 964.48,-163.4 962.08,-163.72 959.61,-164.03 957.07,-164.3 954.53,-164.58 951.93,-164.83 949.27,-165.06 946.61,-165.29 943.89,-165.48 941.14,-165.65 938.38,-165.83 935.59,-165.97 932.76,-166.08 929.94,-166.2 927.09,-166.29 924.22,-166.34 921.36,-166.4 918.48,-166.43 915.6,-166.43 912.72,-166.43 909.84,-166.4 906.97,-166.34 904.11,-166.29 901.26,-166.2 898.43,-166.08 895.61,-165.97 892.81,-165.83 890.06,-165.65 887.3,-165.48 884.59,-165.29 881.93,-165.06 879.27,-164.83 876.66,-164.58 874.12,-164.3 871.58,-164.03 869.11,-163.72 866.72,-163.4 864.32,-163.07 862.01,-162.72 859.78,-162.34 857.55,-161.97 855.42,-161.57 853.38,-161.16 851.35,-160.74 849.41,-160.3 847.58,-159.85 845.76,-159.39 844.04,-158.92 842.44,-158.43 840.84,-157.94 839.36,-157.43 838,-156.92 836.64,-156.4 835.41,-155.86 834.31,-155.32 833.21,-154.77 832.24,-154.22 831.4,-153.66 830.56,-153.09 829.86,-152.52 829.3,-151.94 828.74,-151.36 828.32,-150.78 828.04,-150.19 827.75,-149.61 827.61,-149.02 827.61,-148.43 827.61,-148.43 915.6,-148.43 915.6,-148.43"/>
<path fill="orange" stroke="black" stroke-width="0.5" d="M915.6,-148.43C915.6,-148.43 827.61,-148.43 827.61,-148.43 827.61,-147.84 827.75,-147.25 828.04,-146.67 828.32,-146.08 828.74,-145.5 829.3,-144.92 829.86,-144.34 830.56,-143.77 831.4,-143.2 832.24,-142.64 833.21,-142.09 834.31,-141.54 835.41,-141 836.64,-140.46 838,-139.94 839.36,-139.43 840.84,-138.92 842.44,-138.43 844.04,-137.94 845.76,-137.47 847.58,-137.01 849.41,-136.56 851.35,-136.12 853.38,-135.7 855.42,-135.29 857.55,-134.89 859.78,-134.52 862.01,-134.14 864.32,-133.79 866.72,-133.46 869.11,-133.14 871.58,-132.83 874.12,-132.56 876.66,-132.28 879.27,-132.03 881.93,-131.8 884.59,-131.57 887.3,-131.38 890.06,-131.21 892.81,-131.03 895.61,-130.89 898.43,-130.78 901.26,-130.66 904.11,-130.57 906.97,-130.52 909.84,-130.46 912.72,-130.43 915.6,-130.43 918.48,-130.43 921.36,-130.46 924.22,-130.52 927.09,-130.57 929.94,-130.66 932.76,-130.78 935.59,-130.89 938.38,-131.03 941.14,-131.21 943.89,-131.38 946.61,-131.57 949.27,-131.8 951.93,-132.03 954.53,-132.28 957.07,-132.56 959.61,-132.83 962.08,-133.14 964.48,-133.46 966.87,-133.79 969.19,-134.14 971.41,-134.52 973.64,-134.89 975.78,-135.29 977.81,-135.7 979.85,-136.12 981.78,-136.56 983.61,-137.01 985.44,-137.47 987.15,-137.94 988.75,-138.43 990.35,-138.92 991.84,-139.43 993.19,-139.94 994.55,-140.46 995.78,-141 996.89,-141.54 997.99,-142.09 998.96,-142.64 999.79,-143.2 1000.63,-143.77 1001.33,-144.34 1001.89,-144.92 1002.45,-145.5 1002.88,-146.08 1003.16,-146.67 1003.44,-147.25 1003.58,-147.84 1003.58,-148.43 1003.58,-148.43 915.6,-148.43 915.6,-148.43"/>
<ellipse fill="none" stroke="black" cx="915.6" cy="-148.43" rx="87.99" ry="18"/>
<text text-anchor="middle" x="915.6" y="-144.73" font-family="Times,serif" font-size="14.00">callback&#45;ext&#45;cats</text>
</g>
<!-- callback&#45;&gt;catsC -->
<g id="edge4" class="edge">
<title>callback&#45;&gt;catsC</title>
<path fill="none" stroke="black" d="M862.52,-214.49C874.98,-199.22 890.71,-179.94 901.8,-166.35"/>
<polygon fill="black" stroke="black" points="859.6,-212.53 855.99,-222.5 865.02,-216.96 859.6,-212.53"/>
</g>
<!-- cats -->
<g id="node5" class="node">
<title>cats</title>
<ellipse fill="#eeee00" stroke="black" cx="393.6" cy="-239.91" rx="70.39" ry="18"/>
<text text-anchor="middle" x="393.6" y="-236.21" font-family="Times,serif" font-size="14.00">core&#45;ext&#45;cats</text>
</g>
<!-- cats&#45;&gt;monocle2 -->
<g id="edge6" class="edge">
<title>cats&#45;&gt;monocle2</title>
<path fill="none" stroke="black" d="M348.64,-220.46C308.93,-204.16 251.65,-180.64 214.03,-165.2"/>
<polygon fill="black" stroke="black" points="347.51,-223.77 358.09,-224.33 350.16,-217.3 347.51,-223.77"/>
</g>
<!-- cats&#45;&gt;monocle3 -->
<g id="edge7" class="edge">
<title>cats&#45;&gt;monocle3</title>
<path fill="none" stroke="black" d="M393.6,-211.62C393.6,-196.97 393.6,-179.37 393.6,-166.63"/>
<polygon fill="black" stroke="black" points="390.1,-211.65 393.6,-221.65 397.1,-211.65 390.1,-211.65"/>
</g>
<!-- catsEffect -->
<g id="node8" class="node">
<title>catsEffect</title>
<ellipse fill="orange" stroke="black" cx="612.6" cy="-148.43" rx="100.98" ry="18"/>
<text text-anchor="middle" x="612.6" y="-144.73" font-family="Times,serif" font-size="14.00">core&#45;ext&#45;cats_effect</text>
</g>
<!-- cats&#45;&gt;catsEffect -->
<g id="edge3" class="edge">
<title>cats&#45;&gt;catsEffect</title>
<path fill="none" stroke="black" d="M438.76,-220.46C478.65,-204.16 536.2,-180.64 573.99,-165.2"/>
<polygon fill="black" stroke="black" points="437.2,-217.31 429.27,-224.33 439.85,-223.79 437.2,-217.31"/>
</g>
<!-- coreCE -->
<g id="node9" class="node">
<title>coreCE</title>
<ellipse fill="orange" stroke="black" stroke-width="7" cx="612.6" cy="-37.48" rx="135.11" ry="37.45"/>
<text text-anchor="middle" x="612.6" y="-48.78" font-family="Times,serif" font-size="14.00"> </text>
<text text-anchor="middle" x="612.6" y="-33.78" font-family="Times,serif" font-size="14.00"> core&#45;bundle&#45;cats_effect </text>
<text text-anchor="middle" x="612.6" y="-18.78" font-family="Times,serif" font-size="14.00"> </text>
</g>
<!-- catsEffect&#45;&gt;coreCE -->
<g id="edge10" class="edge">
<title>catsEffect&#45;&gt;coreCE</title>
<path fill="none" stroke="black" d="M612.6,-120.24C612.6,-106.63 612.6,-89.95 612.6,-75.21"/>
<polygon fill="black" stroke="black" points="609.1,-120.41 612.6,-130.41 616.1,-120.41 609.1,-120.41"/>
</g>
<!-- catsEffectC -->
<g id="node11" class="node">
<title>catsEffectC</title>
<path fill="skyblue" stroke="black" stroke-width="0.5" d="M915.6,-37.48C915.6,-37.48 1033.68,-37.48 1033.68,-37.48 1033.68,-37.77 1033.63,-38.07 1033.53,-38.36 1033.44,-38.65 1033.3,-38.95 1033.11,-39.24 1032.92,-39.53 1032.68,-39.83 1032.4,-40.12 1032.12,-40.41 1031.78,-40.7 1031.41,-40.99 1031.03,-41.28 1030.61,-41.56 1030.14,-41.85 1029.67,-42.14 1029.15,-42.42 1028.59,-42.7 1028.03,-42.98 1027.43,-43.26 1026.77,-43.54 1026.12,-43.82 1025.43,-44.09 1024.69,-44.36 1023.95,-44.64 1023.17,-44.91 1022.34,-45.17 1021.51,-45.44 1020.64,-45.7 1019.73,-45.96 1018.82,-46.22 1017.87,-46.48 1016.88,-46.73 1015.88,-46.98 1014.85,-47.23 1013.78,-47.48 1012.7,-47.72 1011.59,-47.96 1010.44,-48.2 1009.29,-48.44 1008.1,-48.67 1006.87,-48.9 1005.65,-49.12 1004.39,-49.35 1003.09,-49.56 1001.79,-49.78 1000.46,-50 999.09,-50.2 997.73,-50.41 996.33,-50.62 994.89,-50.81 993.46,-51.01 992,-51.2 990.51,-51.39 989.01,-51.58 987.49,-51.76 985.94,-51.93 984.39,-52.11 982.81,-52.28 981.2,-52.44 979.59,-52.61 977.96,-52.76 976.3,-52.92 974.65,-53.07 972.96,-53.21 971.26,-53.35 969.56,-53.49 967.83,-53.62 966.08,-53.75 964.34,-53.87 962.57,-53.99 960.78,-54.11 959,-54.22 957.2,-54.33 955.38,-54.42 953.56,-54.52 951.72,-54.62 949.87,-54.7 948.03,-54.79 946.16,-54.87 944.29,-54.94 942.41,-55.01 940.53,-55.07 938.63,-55.13 936.74,-55.19 934.83,-55.24 932.92,-55.28 931.01,-55.33 929.09,-55.36 927.17,-55.39 925.25,-55.42 923.32,-55.44 921.39,-55.45 919.46,-55.47 917.53,-55.48 915.6,-55.48 913.67,-55.48 911.73,-55.47 909.8,-55.45 907.87,-55.44 905.95,-55.42 904.02,-55.39 902.1,-55.36 900.18,-55.33 898.27,-55.28 896.36,-55.24 894.46,-55.19 892.56,-55.13 890.67,-55.07 888.78,-55.01 886.91,-54.94 885.03,-54.87 883.17,-54.79 881.32,-54.7 879.47,-54.62 877.64,-54.52 875.82,-54.42 874,-54.33 872.2,-54.22 870.41,-54.11 868.63,-53.99 866.86,-53.87 865.11,-53.75 863.37,-53.62 861.64,-53.49 859.94,-53.35 858.23,-53.21 856.55,-53.07 854.89,-52.92 853.24,-52.76 851.6,-52.61 850,-52.44 848.39,-52.28 846.81,-52.11 845.26,-51.93 843.71,-51.76 842.18,-51.58 840.69,-51.39 839.2,-51.2 837.73,-51.01 836.3,-50.81 834.87,-50.62 833.47,-50.41 832.1,-50.2 830.74,-50 829.4,-49.78 828.11,-49.56 826.81,-49.35 825.55,-49.12 824.32,-48.9 823.1,-48.67 821.91,-48.44 820.76,-48.2 819.6,-47.96 818.49,-47.72 817.42,-47.48 816.34,-47.23 815.31,-46.98 814.32,-46.73 813.32,-46.48 812.37,-46.22 811.46,-45.96 810.55,-45.7 809.68,-45.44 808.85,-45.17 808.03,-44.91 807.25,-44.64 806.51,-44.36 805.77,-44.09 805.07,-43.82 804.42,-43.54 803.77,-43.26 803.16,-42.98 802.6,-42.7 802.04,-42.42 801.53,-42.14 801.06,-41.85 800.59,-41.56 800.16,-41.28 799.79,-40.99 799.41,-40.7 799.08,-40.41 798.8,-40.12 798.51,-39.83 798.28,-39.53 798.09,-39.24 797.9,-38.95 797.76,-38.65 797.66,-38.36 797.57,-38.07 797.52,-37.77 797.52,-37.48 797.52,-37.48 915.6,-37.48 915.6,-37.48"/>
<path fill="orange" stroke="black" stroke-width="0.5" d="M915.6,-37.48C915.6,-37.48 797.52,-37.48 797.52,-37.48 797.52,-37.18 797.57,-36.89 797.66,-36.59 797.76,-36.3 797.9,-36.01 798.09,-35.71 798.28,-35.42 798.51,-35.13 798.8,-34.84 799.08,-34.54 799.41,-34.25 799.79,-33.97 800.16,-33.68 800.59,-33.39 801.06,-33.1 801.53,-32.82 802.04,-32.53 802.6,-32.25 803.16,-31.97 803.77,-31.69 804.42,-31.41 805.07,-31.14 805.77,-30.86 806.51,-30.59 807.25,-30.32 808.03,-30.05 808.85,-29.78 809.68,-29.51 810.55,-29.25 811.46,-28.99 812.37,-28.73 813.32,-28.48 814.32,-28.22 815.31,-27.97 816.34,-27.72 817.42,-27.48 818.49,-27.23 819.6,-26.99 820.76,-26.75 821.91,-26.52 823.1,-26.29 824.32,-26.06 825.55,-25.83 826.81,-25.61 828.11,-25.39 829.4,-25.17 830.74,-24.96 832.1,-24.75 833.47,-24.54 834.87,-24.34 836.3,-24.14 837.73,-23.94 839.2,-23.75 840.69,-23.56 842.18,-23.38 843.71,-23.19 845.26,-23.02 846.81,-22.84 848.39,-22.67 850,-22.51 851.6,-22.35 853.24,-22.19 854.89,-22.04 856.55,-21.89 858.23,-21.74 859.94,-21.6 861.64,-21.46 863.37,-21.33 865.11,-21.2 866.86,-21.08 868.63,-20.96 870.41,-20.85 872.2,-20.73 874,-20.63 875.82,-20.53 877.64,-20.43 879.47,-20.34 881.32,-20.25 883.17,-20.17 885.03,-20.09 886.91,-20.02 888.78,-19.94 890.67,-19.88 892.56,-19.82 894.46,-19.77 896.36,-19.71 898.27,-19.67 900.18,-19.63 902.1,-19.59 904.02,-19.56 905.95,-19.53 907.87,-19.51 909.8,-19.5 911.73,-19.48 913.67,-19.48 915.6,-19.48 917.53,-19.48 919.46,-19.48 921.39,-19.5 923.32,-19.51 925.25,-19.53 927.17,-19.56 929.09,-19.59 931.01,-19.63 932.92,-19.67 934.83,-19.71 936.74,-19.77 938.63,-19.82 940.53,-19.88 942.41,-19.94 944.29,-20.02 946.16,-20.09 948.03,-20.17 949.87,-20.25 951.72,-20.34 953.56,-20.43 955.38,-20.53 957.2,-20.63 959,-20.73 960.78,-20.85 962.57,-20.96 964.34,-21.08 966.08,-21.2 967.83,-21.33 969.56,-21.46 971.26,-21.6 972.96,-21.74 974.65,-21.89 976.3,-22.04 977.96,-22.19 979.59,-22.35 981.2,-22.51 982.81,-22.67 984.39,-22.84 985.94,-23.02 987.49,-23.19 989.01,-23.38 990.51,-23.56 992,-23.75 993.46,-23.94 994.89,-24.14 996.33,-24.34 997.73,-24.54 999.09,-24.75 1000.46,-24.96 1001.79,-25.17 1003.09,-25.39 1004.39,-25.61 1005.65,-25.83 1006.87,-26.06 1008.1,-26.29 1009.29,-26.52 1010.44,-26.75 1011.59,-26.99 1012.7,-27.23 1013.78,-27.48 1014.85,-27.72 1015.88,-27.97 1016.88,-28.22 1017.87,-28.48 1018.82,-28.73 1019.73,-28.99 1020.64,-29.25 1021.51,-29.51 1022.34,-29.78 1023.17,-30.05 1023.95,-30.32 1024.69,-30.59 1025.43,-30.86 1026.12,-31.14 1026.77,-31.41 1027.43,-31.69 1028.03,-31.97 1028.59,-32.25 1029.15,-32.53 1029.67,-32.82 1030.14,-33.1 1030.61,-33.39 1031.03,-33.68 1031.41,-33.97 1031.78,-34.25 1032.12,-34.54 1032.4,-34.84 1032.68,-35.13 1032.92,-35.42 1033.11,-35.71 1033.3,-36.01 1033.44,-36.3 1033.53,-36.59 1033.63,-36.89 1033.68,-37.18 1033.68,-37.48 1033.68,-37.48 915.6,-37.48 915.6,-37.48"/>
<ellipse fill="none" stroke="black" cx="915.6" cy="-37.48" rx="118.08" ry="18"/>
<text text-anchor="middle" x="915.6" y="-33.78" font-family="Times,serif" font-size="14.00">callback&#45;ext&#45;cats_effect</text>
</g>
<!-- catsC&#45;&gt;catsEffectC -->
<g id="edge5" class="edge">
<title>catsC&#45;&gt;catsEffectC</title>
<path fill="none" stroke="black" d="M915.6,-120.26C915.6,-100.05 915.6,-73.08 915.6,-55.74"/>
<polygon fill="black" stroke="black" points="912.1,-120.41 915.6,-130.41 919.1,-120.41 912.1,-120.41"/>
</g>
</g>
</svg>
