<?xml version="1.0" encoding="UTF-8" standalone="no"?>
<!DOCTYPE svg PUBLIC "-//W3C//DTD SVG 1.1//EN"
 "http://www.w3.org/Graphics/SVG/1.1/DTD/svg11.dtd">
<!-- Generated by graphviz version 2.47.3 (0)
 -->
<!-- Title: G Pages: 1 -->
<svg width="1008pt" height="482pt"
 viewBox="0.00 0.00 1007.92 481.91" xmlns="http://www.w3.org/2000/svg" xmlns:xlink="http://www.w3.org/1999/xlink">
<g id="graph0" class="graph" transform="scale(1 1) rotate(0) translate(4 477.91)">
<title>G</title>
<polygon fill="white" stroke="transparent" points="-4,4 -4,-477.91 1003.92,-477.91 1003.92,4 -4,4"/>
<!-- utilCE -->
<g id="node1" class="node">
<title>utilCE</title>
<ellipse fill="lightgrey" stroke="black" cx="280.29" cy="-311.91" rx="79.09" ry="18"/>
<text text-anchor="middle" x="280.29" y="-308.21" font-family="Times,serif" font-size="14.00">util&#45;cats_effect</text>
</g>
<!-- catsEffect -->
<g id="node13" class="node">
<title>catsEffect</title>
<ellipse fill="orange" stroke="black" cx="355.29" cy="-128.95" rx="100.98" ry="18"/>
<text text-anchor="middle" x="355.29" y="-125.25" font-family="Times,serif" font-size="14.00">core&#45;ext&#45;cats_effect</text>
</g>
<!-- utilCE&#45;&gt;catsEffect -->
<g id="edge4" class="edge">
<title>utilCE&#45;&gt;catsEffect</title>
<path fill="none" stroke="black" d="M279.3,-283.4C279.46,-256.36 282.79,-214.64 299.29,-182.95 306.77,-168.59 319.69,-155.96 331.24,-146.64"/>
<polygon fill="black" stroke="black" points="275.8,-283.71 279.39,-293.68 282.8,-283.65 275.8,-283.71"/>
</g>
<!-- catsEffectC -->
<g id="node16" class="node">
<title>catsEffectC</title>
<path fill="skyblue" stroke="black" stroke-width="0.5" d="M118.29,-128.95C118.29,-128.95 236.37,-128.95 236.37,-128.95 236.37,-129.25 236.32,-129.54 236.23,-129.84 236.13,-130.13 235.99,-130.42 235.8,-130.72 235.61,-131.01 235.37,-131.3 235.09,-131.59 234.81,-131.89 234.48,-132.18 234.1,-132.46 233.72,-132.75 233.3,-133.04 232.83,-133.33 232.36,-133.61 231.85,-133.9 231.28,-134.18 230.72,-134.46 230.12,-134.74 229.47,-135.02 228.82,-135.29 228.12,-135.57 227.38,-135.84 226.64,-136.11 225.86,-136.38 225.03,-136.65 224.21,-136.92 223.34,-137.18 222.43,-137.44 221.52,-137.7 220.56,-137.95 219.57,-138.21 218.58,-138.46 217.54,-138.71 216.47,-138.95 215.4,-139.2 214.28,-139.44 213.13,-139.68 211.98,-139.91 210.79,-140.14 209.57,-140.37 208.34,-140.6 207.08,-140.82 205.78,-141.04 204.48,-141.26 203.15,-141.47 201.78,-141.68 200.42,-141.89 199.02,-142.09 197.59,-142.29 196.16,-142.49 194.69,-142.68 193.2,-142.87 191.7,-143.05 190.18,-143.24 188.63,-143.41 187.08,-143.59 185.5,-143.76 183.89,-143.92 182.28,-144.08 180.65,-144.24 178.99,-144.39 177.34,-144.54 175.66,-144.69 173.95,-144.83 172.25,-144.97 170.52,-145.1 168.77,-145.23 167.03,-145.35 165.26,-145.47 163.48,-145.58 161.69,-145.7 159.89,-145.8 158.07,-145.9 156.25,-146 154.42,-146.09 152.57,-146.18 150.72,-146.26 148.85,-146.34 146.98,-146.41 145.11,-146.49 143.22,-146.55 141.33,-146.61 139.43,-146.66 137.53,-146.72 135.62,-146.76 133.7,-146.8 131.79,-146.84 129.86,-146.87 127.94,-146.9 126.01,-146.92 124.08,-146.93 122.15,-146.95 120.22,-146.95 118.29,-146.95 116.36,-146.95 114.43,-146.95 112.5,-146.93 110.57,-146.92 108.64,-146.9 106.72,-146.87 104.79,-146.84 102.87,-146.8 100.96,-146.76 99.05,-146.72 97.15,-146.66 95.25,-146.61 93.36,-146.55 91.47,-146.49 89.6,-146.41 87.72,-146.34 85.86,-146.26 84.01,-146.18 82.16,-146.09 80.33,-146 78.51,-145.9 76.69,-145.8 74.89,-145.7 73.1,-145.58 71.32,-145.47 69.55,-145.35 67.8,-145.23 66.06,-145.1 64.33,-144.97 62.63,-144.83 60.92,-144.69 59.24,-144.54 57.58,-144.39 55.93,-144.24 54.29,-144.08 52.69,-143.92 51.08,-143.76 49.5,-143.59 47.95,-143.41 46.4,-143.24 44.87,-143.05 43.38,-142.87 41.89,-142.68 40.42,-142.49 38.99,-142.29 37.56,-142.09 36.16,-141.89 34.79,-141.68 33.43,-141.47 32.1,-141.26 30.8,-141.04 29.5,-140.82 28.24,-140.6 27.01,-140.37 25.79,-140.14 24.6,-139.91 23.45,-139.68 22.3,-139.44 21.18,-139.2 20.11,-138.95 19.04,-138.71 18,-138.46 17.01,-138.21 16.02,-137.95 15.06,-137.7 14.15,-137.44 13.24,-137.18 12.37,-136.92 11.55,-136.65 10.72,-136.38 9.94,-136.11 9.2,-135.84 8.46,-135.57 7.76,-135.29 7.11,-135.02 6.46,-134.74 5.86,-134.46 5.29,-134.18 4.73,-133.9 4.22,-133.61 3.75,-133.33 3.28,-133.04 2.86,-132.75 2.48,-132.46 2.1,-132.18 1.77,-131.89 1.49,-131.59 1.2,-131.3 0.97,-131.01 0.78,-130.72 0.59,-130.42 0.45,-130.13 0.35,-129.84 0.26,-129.54 0.21,-129.25 0.21,-128.95 0.21,-128.95 118.29,-128.95 118.29,-128.95"/>
<path fill="orange" stroke="black" stroke-width="0.5" d="M118.29,-128.95C118.29,-128.95 0.21,-128.95 0.21,-128.95 0.21,-128.66 0.26,-128.36 0.35,-128.07 0.45,-127.78 0.59,-127.48 0.78,-127.19 0.97,-126.9 1.2,-126.6 1.49,-126.31 1.77,-126.02 2.1,-125.73 2.48,-125.44 2.86,-125.15 3.28,-124.87 3.75,-124.58 4.22,-124.29 4.73,-124.01 5.29,-123.73 5.86,-123.45 6.46,-123.17 7.11,-122.89 7.76,-122.61 8.46,-122.34 9.2,-122.07 9.94,-121.79 10.72,-121.52 11.55,-121.26 12.37,-120.99 13.24,-120.73 14.15,-120.47 15.06,-120.21 16.02,-119.95 17.01,-119.7 18,-119.45 19.04,-119.2 20.11,-118.95 21.18,-118.71 22.3,-118.47 23.45,-118.23 24.6,-117.99 25.79,-117.76 27.01,-117.53 28.24,-117.31 29.5,-117.08 30.8,-116.87 32.1,-116.65 33.43,-116.43 34.79,-116.23 36.16,-116.02 37.56,-115.81 38.99,-115.62 40.42,-115.42 41.89,-115.23 43.38,-115.04 44.87,-114.85 46.4,-114.67 47.95,-114.5 49.5,-114.32 51.08,-114.15 52.69,-113.99 54.29,-113.82 55.93,-113.67 57.58,-113.51 59.24,-113.36 60.92,-113.22 62.63,-113.08 64.33,-112.94 66.06,-112.81 67.8,-112.68 69.55,-112.56 71.32,-112.44 73.1,-112.32 74.89,-112.21 76.69,-112.1 78.51,-112.01 80.33,-111.91 82.16,-111.81 84.01,-111.73 85.86,-111.64 87.72,-111.56 89.6,-111.49 91.47,-111.42 93.36,-111.36 95.25,-111.3 97.15,-111.24 99.05,-111.19 100.96,-111.15 102.87,-111.1 104.79,-111.07 106.72,-111.04 108.64,-111.01 110.57,-110.99 112.5,-110.98 114.43,-110.96 116.36,-110.95 118.29,-110.95 120.22,-110.95 122.15,-110.96 124.08,-110.98 126.01,-110.99 127.94,-111.01 129.86,-111.04 131.79,-111.07 133.7,-111.1 135.62,-111.15 137.53,-111.19 139.43,-111.24 141.33,-111.3 143.22,-111.36 145.11,-111.42 146.98,-111.49 148.85,-111.56 150.72,-111.64 152.57,-111.73 154.42,-111.81 156.25,-111.91 158.07,-112.01 159.89,-112.1 161.69,-112.21 163.48,-112.32 165.26,-112.44 167.03,-112.56 168.77,-112.68 170.52,-112.81 172.25,-112.94 173.95,-113.08 175.66,-113.22 177.34,-113.36 178.99,-113.51 180.65,-113.67 182.28,-113.82 183.89,-113.99 185.5,-114.15 187.08,-114.32 188.63,-114.5 190.18,-114.67 191.7,-114.85 193.2,-115.04 194.69,-115.23 196.16,-115.42 197.59,-115.62 199.02,-115.81 200.42,-116.02 201.78,-116.23 203.15,-116.43 204.48,-116.65 205.78,-116.87 207.08,-117.08 208.34,-117.31 209.57,-117.53 210.79,-117.76 211.98,-117.99 213.13,-118.23 214.28,-118.47 215.4,-118.71 216.47,-118.95 217.54,-119.2 218.58,-119.45 219.57,-119.7 220.56,-119.95 221.52,-120.21 222.43,-120.47 223.34,-120.73 224.21,-120.99 225.03,-121.26 225.86,-121.52 226.64,-121.79 227.38,-122.07 228.12,-122.34 228.82,-122.61 229.47,-122.89 230.12,-123.17 230.72,-123.45 231.28,-123.73 231.85,-124.01 232.36,-124.29 232.83,-124.58 233.3,-124.87 233.72,-125.15 234.1,-125.44 234.48,-125.73 234.81,-126.02 235.09,-126.31 235.37,-126.6 235.61,-126.9 235.8,-127.19 235.99,-127.48 236.13,-127.78 236.23,-128.07 236.32,-128.36 236.37,-128.66 236.37,-128.95 236.37,-128.95 118.29,-128.95 118.29,-128.95"/>
<ellipse fill="none" stroke="black" cx="118.29" cy="-128.95" rx="118.08" ry="18"/>
<text text-anchor="middle" x="118.29" y="-125.25" font-family="Times,serif" font-size="14.00">callback&#45;ext&#45;cats_effect</text>
</g>
<!-- utilCE&#45;&gt;catsEffectC -->
<g id="edge3" class="edge">
<title>utilCE&#45;&gt;catsEffectC</title>
<path fill="none" stroke="black" d="M258.29,-286.33C224.88,-249.02 162.22,-179.02 133.44,-146.88"/>
<polygon fill="black" stroke="black" points="256.06,-289.09 265.34,-294.21 261.28,-284.42 256.06,-289.09"/>
</g>
<!-- utilFallbacks -->
<g id="node2" class="node">
<title>utilFallbacks</title>
<ellipse fill="lightgrey" stroke="black" cx="557.29" cy="-455.91" rx="70.39" ry="18"/>
<text text-anchor="middle" x="557.29" y="-452.21" font-family="Times,serif" font-size="14.00">util&#45;fallbacks</text>
</g>
<!-- core -->
<g id="node9" class="node">
<title>core</title>
<ellipse fill="skyblue" stroke="black" stroke-width="7" cx="541.29" cy="-220.43" rx="39.7" ry="37.45"/>
<text text-anchor="middle" x="541.29" y="-231.73" font-family="Times,serif" font-size="14.00"> </text>
<text text-anchor="middle" x="541.29" y="-216.73" font-family="Times,serif" font-size="14.00"> core </text>
<text text-anchor="middle" x="541.29" y="-201.73" font-family="Times,serif" font-size="14.00"> </text>
</g>
<!-- utilFallbacks&#45;&gt;core -->
<g id="edge23" class="edge">
<title>utilFallbacks&#45;&gt;core</title>
<path fill="none" stroke="black" d="M555.43,-427.71C552.55,-385.76 547.03,-305.21 543.8,-258.13"/>
<polygon fill="black" stroke="black" points="551.94,-428 556.11,-437.74 558.92,-427.52 551.94,-428"/>
</g>
<!-- coreCE -->
<g id="node14" class="node">
<title>coreCE</title>
<ellipse fill="orange" stroke="black" stroke-width="7" cx="675.29" cy="-37.48" rx="135.11" ry="37.45"/>
<text text-anchor="middle" x="675.29" y="-48.78" font-family="Times,serif" font-size="14.00"> </text>
<text text-anchor="middle" x="675.29" y="-33.78" font-family="Times,serif" font-size="14.00"> core&#45;bundle&#45;cats_effect </text>
<text text-anchor="middle" x="675.29" y="-18.78" font-family="Times,serif" font-size="14.00"> </text>
</g>
<!-- utilFallbacks&#45;&gt;coreCE -->
<g id="edge24" class="edge">
<title>utilFallbacks&#45;&gt;coreCE</title>
<path fill="none" stroke="black" d="M630.44,-446.55C755.31,-430.22 996.29,-388.87 996.29,-312.91 996.29,-312.91 996.29,-312.91 996.29,-219.43 996.29,-170.48 1010.81,-146.62 977.29,-110.95 952.32,-84.38 869.44,-65.66 796.81,-53.9"/>
<polygon fill="black" stroke="black" points="629.66,-443.12 620.19,-447.86 630.55,-450.06 629.66,-443.12"/>
</g>
<!-- util -->
<g id="node17" class="node">
<title>util</title>
<ellipse fill="lightgrey" stroke="black" cx="492.29" cy="-383.91" rx="27" ry="18"/>
<text text-anchor="middle" x="492.29" y="-380.21" font-family="Times,serif" font-size="14.00">util</text>
</g>
<!-- utilFallbacks&#45;&gt;util -->
<g id="edge1" class="edge">
<title>utilFallbacks&#45;&gt;util</title>
<path fill="none" stroke="#999999" stroke-dasharray="5,2" d="M534.92,-430.82C525.41,-420.57 514.6,-408.94 506.25,-399.94"/>
<polygon fill="#999999" stroke="#999999" points="532.52,-433.37 541.89,-438.32 537.65,-428.61 532.52,-433.37"/>
</g>
<!-- coreGeneric -->
<g id="node3" class="node">
<title>coreGeneric</title>
<ellipse fill="lightgrey" stroke="black" cx="669.29" cy="-311.91" rx="68.49" ry="18"/>
<text text-anchor="middle" x="669.29" y="-308.21" font-family="Times,serif" font-size="14.00">core&#45;generic</text>
</g>
<!-- extra -->
<g id="node6" class="node">
<title>extra</title>
<ellipse fill="#bcee68" stroke="black" cx="792.29" cy="-220.43" rx="35.19" ry="18"/>
<text text-anchor="middle" x="792.29" y="-216.73" font-family="Times,serif" font-size="14.00">extra</text>
</g>
<!-- coreGeneric&#45;&gt;extra -->
<g id="edge11" class="edge">
<title>coreGeneric&#45;&gt;extra</title>
<path fill="none" stroke="black" d="M702.81,-289.5C717.06,-280.12 733.72,-268.79 748.29,-257.91 757.35,-251.14 767.07,-243.16 775.06,-236.4"/>
<polygon fill="black" stroke="black" points="700.75,-286.66 694.29,-295.06 704.57,-292.53 700.75,-286.66"/>
</g>
<!-- coreGeneric&#45;&gt;core -->
<g id="edge10" class="edge">
<title>coreGeneric&#45;&gt;core</title>
<path fill="none" stroke="black" d="M636.36,-289.34C622.09,-279.85 605.25,-268.49 590.29,-257.91 584.31,-253.68 578,-249.09 571.96,-244.62"/>
<polygon fill="black" stroke="black" points="634.61,-292.37 644.88,-294.97 638.47,-286.54 634.61,-292.37"/>
</g>
<!-- cats -->
<g id="node10" class="node">
<title>cats</title>
<ellipse fill="#eeee00" stroke="black" cx="669.29" cy="-220.43" rx="70.39" ry="18"/>
<text text-anchor="middle" x="669.29" y="-216.73" font-family="Times,serif" font-size="14.00">core&#45;ext&#45;cats</text>
</g>
<!-- coreGeneric&#45;&gt;cats -->
<g id="edge14" class="edge">
<title>coreGeneric&#45;&gt;cats</title>
<path fill="none" stroke="black" d="M669.29,-283.62C669.29,-268.97 669.29,-251.37 669.29,-238.63"/>
<polygon fill="black" stroke="black" points="665.79,-283.65 669.29,-293.65 672.79,-283.65 665.79,-283.65"/>
</g>
<!-- facade -->
<g id="node4" class="node">
<title>facade</title>
<ellipse fill="#eeaeee" stroke="black" cx="765.29" cy="-383.91" rx="40.89" ry="18"/>
<text text-anchor="middle" x="765.29" y="-380.21" font-family="Times,serif" font-size="14.00">facade</text>
</g>
<!-- facade&#45;&gt;coreGeneric -->
<g id="edge9" class="edge">
<title>facade&#45;&gt;coreGeneric</title>
<path fill="none" stroke="black" d="M736.75,-362.1C722.2,-351.49 704.78,-338.79 691.29,-328.95"/>
<polygon fill="black" stroke="black" points="734.79,-365 744.93,-368.06 738.91,-359.34 734.79,-365"/>
</g>
<!-- facadeTest -->
<g id="node5" class="node">
<title>facadeTest</title>
<ellipse fill="#eeaeee" stroke="black" cx="862.29" cy="-311.91" rx="61.99" ry="18"/>
<text text-anchor="middle" x="862.29" y="-308.21" font-family="Times,serif" font-size="14.00">facade&#45;test</text>
</g>
<!-- facade&#45;&gt;facadeTest -->
<g id="edge7" class="edge">
<title>facade&#45;&gt;facadeTest</title>
<path fill="none" stroke="black" d="M794.13,-362.1C808.83,-351.49 826.43,-338.79 840.06,-328.95"/>
<polygon fill="black" stroke="black" points="791.92,-359.37 785.86,-368.06 796.02,-365.05 791.92,-359.37"/>
</g>
<!-- testUtil -->
<g id="node7" class="node">
<title>testUtil</title>
<ellipse fill="#bcee68" stroke="black" cx="939.29" cy="-128.95" rx="28.7" ry="18"/>
<text text-anchor="middle" x="939.29" y="-125.25" font-family="Times,serif" font-size="14.00">test</text>
</g>
<!-- facadeTest&#45;&gt;testUtil -->
<g id="edge13" class="edge">
<title>facadeTest&#45;&gt;testUtil</title>
<path fill="none" stroke="black" d="M873.52,-284.52C889.63,-246.65 918.84,-178.02 932.23,-146.54"/>
<polygon fill="black" stroke="black" points="870.23,-283.31 869.53,-293.88 876.67,-286.05 870.23,-283.31"/>
</g>
<!-- extra&#45;&gt;testUtil -->
<g id="edge12" class="edge">
<title>extra&#45;&gt;testUtil</title>
<path fill="none" stroke="black" d="M822.87,-200.82C851.87,-183.17 894.57,-157.17 919.4,-142.06"/>
<polygon fill="black" stroke="black" points="820.7,-198.04 813.98,-206.23 824.34,-204.02 820.7,-198.04"/>
</g>
<!-- monocle2 -->
<g id="node11" class="node">
<title>monocle2</title>
<ellipse fill="#eeee00" stroke="black" cx="574.29" cy="-128.95" rx="100.18" ry="18"/>
<text text-anchor="middle" x="574.29" y="-125.25" font-family="Times,serif" font-size="14.00">extra&#45;ext&#45;monocle2</text>
</g>
<!-- extra&#45;&gt;monocle2 -->
<g id="edge20" class="edge">
<title>extra&#45;&gt;monocle2</title>
<path fill="none" stroke="black" d="M769.09,-197.31C762.71,-192.06 755.54,-186.86 748.29,-182.95 713.81,-164.39 671.91,-151.37 637.87,-142.89"/>
<polygon fill="black" stroke="black" points="766.85,-200 776.7,-203.9 771.43,-194.71 766.85,-200"/>
</g>
<!-- monocle3 -->
<g id="node12" class="node">
<title>monocle3</title>
<ellipse fill="#eeee00" stroke="black" cx="792.29" cy="-128.95" rx="100.18" ry="18"/>
<text text-anchor="middle" x="792.29" y="-125.25" font-family="Times,serif" font-size="14.00">extra&#45;ext&#45;monocle3</text>
</g>
<!-- extra&#45;&gt;monocle3 -->
<g id="edge21" class="edge">
<title>extra&#45;&gt;monocle3</title>
<path fill="none" stroke="black" d="M792.29,-192.15C792.29,-177.5 792.29,-159.89 792.29,-147.15"/>
<polygon fill="black" stroke="black" points="788.79,-192.18 792.29,-202.18 795.79,-192.18 788.79,-192.18"/>
</g>
<!-- callback -->
<g id="node8" class="node">
<title>callback</title>
<ellipse fill="skyblue" stroke="black" cx="481.29" cy="-311.91" rx="48.19" ry="18"/>
<text text-anchor="middle" x="481.29" y="-308.21" font-family="Times,serif" font-size="14.00">callback</text>
</g>
<!-- callback&#45;&gt;core -->
<g id="edge8" class="edge">
<title>callback&#45;&gt;core</title>
<path fill="none" stroke="black" d="M498.27,-285.59C505.13,-275.35 513.12,-263.44 520.34,-252.67"/>
<polygon fill="black" stroke="black" points="495.24,-283.82 492.58,-294.08 501.05,-287.72 495.24,-283.82"/>
</g>
<!-- catsC -->
<g id="node15" class="node">
<title>catsC</title>
<path fill="skyblue" stroke="black" stroke-width="0.5" d="M396.29,-220.43C396.29,-220.43 484.27,-220.43 484.27,-220.43 484.27,-221.02 484.13,-221.61 483.85,-222.19 483.57,-222.78 483.15,-223.36 482.58,-223.94 482.02,-224.52 481.32,-225.09 480.49,-225.66 479.65,-226.22 478.68,-226.77 477.58,-227.32 476.48,-227.86 475.24,-228.4 473.89,-228.92 472.53,-229.43 471.05,-229.94 469.45,-230.43 467.85,-230.92 466.13,-231.39 464.3,-231.85 462.48,-232.3 460.54,-232.74 458.5,-233.16 456.47,-233.57 454.33,-233.97 452.11,-234.34 449.88,-234.72 447.57,-235.07 445.17,-235.4 442.78,-235.72 440.31,-236.03 437.77,-236.3 435.23,-236.58 432.62,-236.83 429.96,-237.06 427.3,-237.29 424.59,-237.48 421.83,-237.65 419.07,-237.83 416.28,-237.97 413.45,-238.08 410.63,-238.2 407.78,-238.29 404.91,-238.34 402.05,-238.4 399.17,-238.43 396.29,-238.43 393.41,-238.43 390.53,-238.4 387.67,-238.34 384.8,-238.29 381.95,-238.2 379.12,-238.08 376.3,-237.97 373.5,-237.83 370.75,-237.65 367.99,-237.48 365.28,-237.29 362.62,-237.06 359.96,-236.83 357.35,-236.58 354.81,-236.3 352.27,-236.03 349.8,-235.72 347.41,-235.4 345.01,-235.07 342.7,-234.72 340.47,-234.34 338.25,-233.97 336.11,-233.57 334.07,-233.16 332.04,-232.74 330.1,-232.3 328.28,-231.85 326.45,-231.39 324.73,-230.92 323.13,-230.43 321.53,-229.94 320.05,-229.43 318.69,-228.92 317.34,-228.4 316.1,-227.86 315,-227.32 313.9,-226.77 312.93,-226.22 312.09,-225.66 311.26,-225.09 310.56,-224.52 310,-223.94 309.43,-223.36 309.01,-222.78 308.73,-222.19 308.45,-221.61 308.3,-221.02 308.3,-220.43 308.3,-220.43 396.29,-220.43 396.29,-220.43"/>
<path fill="orange" stroke="black" stroke-width="0.5" d="M396.29,-220.43C396.29,-220.43 308.3,-220.43 308.3,-220.43 308.3,-219.84 308.45,-219.25 308.73,-218.67 309.01,-218.08 309.43,-217.5 310,-216.92 310.56,-216.34 311.26,-215.77 312.09,-215.2 312.93,-214.64 313.9,-214.09 315,-213.54 316.1,-213 317.34,-212.46 318.69,-211.94 320.05,-211.43 321.53,-210.92 323.13,-210.43 324.73,-209.94 326.45,-209.47 328.28,-209.01 330.1,-208.56 332.04,-208.12 334.07,-207.7 336.11,-207.29 338.25,-206.89 340.47,-206.52 342.7,-206.14 345.01,-205.79 347.41,-205.46 349.8,-205.14 352.27,-204.83 354.81,-204.56 357.35,-204.28 359.96,-204.03 362.62,-203.8 365.28,-203.57 367.99,-203.38 370.75,-203.21 373.5,-203.03 376.3,-202.89 379.12,-202.78 381.95,-202.66 384.8,-202.57 387.67,-202.52 390.53,-202.46 393.41,-202.43 396.29,-202.43 399.17,-202.43 402.05,-202.46 404.91,-202.52 407.78,-202.57 410.63,-202.66 413.45,-202.78 416.28,-202.89 419.07,-203.03 421.83,-203.21 424.59,-203.38 427.3,-203.57 429.96,-203.8 432.62,-204.03 435.23,-204.28 437.77,-204.56 440.31,-204.83 442.78,-205.14 445.17,-205.46 447.57,-205.79 449.88,-206.14 452.11,-206.52 454.33,-206.89 456.47,-207.29 458.5,-207.7 460.54,-208.12 462.48,-208.56 464.3,-209.01 466.13,-209.47 467.85,-209.94 469.45,-210.43 471.05,-210.92 472.53,-211.43 473.89,-211.94 475.24,-212.46 476.48,-213 477.58,-213.54 478.68,-214.09 479.65,-214.64 480.49,-215.2 481.32,-215.77 482.02,-216.34 482.58,-216.92 483.15,-217.5 483.57,-218.08 483.85,-218.67 484.13,-219.25 484.27,-219.84 484.27,-220.43 484.27,-220.43 396.29,-220.43 396.29,-220.43"/>
<ellipse fill="none" stroke="black" cx="396.29" cy="-220.43" rx="87.99" ry="18"/>
<text text-anchor="middle" x="396.29" y="-216.73" font-family="Times,serif" font-size="14.00">callback&#45;ext&#45;cats</text>
</g>
<!-- callback&#45;&gt;catsC -->
<g id="edge16" class="edge">
<title>callback&#45;&gt;catsC</title>
<path fill="none" stroke="black" d="M458.49,-286.91C443.93,-271.58 425.39,-252.07 412.36,-238.35"/>
<polygon fill="black" stroke="black" points="456.27,-289.66 465.7,-294.5 461.35,-284.83 456.27,-289.66"/>
</g>
<!-- cats&#45;&gt;monocle2 -->
<g id="edge18" class="edge">
<title>cats&#45;&gt;monocle2</title>
<path fill="none" stroke="black" d="M643.8,-195.43C627.46,-180.03 606.65,-160.43 592.08,-146.71"/>
<polygon fill="black" stroke="black" points="641.74,-198.29 651.42,-202.6 646.54,-193.2 641.74,-198.29"/>
</g>
<!-- cats&#45;&gt;monocle3 -->
<g id="edge19" class="edge">
<title>cats&#45;&gt;monocle3</title>
<path fill="none" stroke="black" d="M699.74,-197.28C721.28,-181.61 749.71,-160.93 769.35,-146.64"/>
<polygon fill="black" stroke="black" points="697.59,-194.51 691.56,-203.23 701.71,-200.17 697.59,-194.51"/>
</g>
<!-- cats&#45;&gt;catsEffect -->
<g id="edge15" class="edge">
<title>cats&#45;&gt;catsEffect</title>
<path fill="none" stroke="black" d="M630.59,-199.58C617.97,-193.65 603.74,-187.52 590.29,-182.95 536.23,-164.61 473.01,-150.76 425.76,-141.82"/>
<polygon fill="black" stroke="black" points="629.36,-202.88 639.89,-204.05 632.39,-196.57 629.36,-202.88"/>
</g>
<!-- catsEffect&#45;&gt;coreCE -->
<g id="edge22" class="edge">
<title>catsEffect&#45;&gt;coreCE</title>
<path fill="none" stroke="black" d="M416.75,-110.77C463.53,-97.69 528.72,-79.46 581.94,-64.58"/>
<polygon fill="black" stroke="black" points="415.75,-107.41 407.06,-113.48 417.63,-114.16 415.75,-107.41"/>
</g>
<!-- catsC&#45;&gt;catsEffectC -->
<g id="edge17" class="edge">
<title>catsC&#45;&gt;catsEffectC</title>
<path fill="none" stroke="black" d="M341.77,-201.88C290.77,-185.47 215.31,-161.18 166.47,-145.46"/>
<polygon fill="black" stroke="black" points="340.72,-205.22 351.32,-204.95 342.87,-198.56 340.72,-205.22"/>
</g>
<!-- util&#45;&gt;utilCE -->
<g id="edge2" class="edge">
<title>util&#45;&gt;utilCE</title>
<path fill="none" stroke="black" d="M458.65,-371.8C421.96,-359.68 363.13,-340.26 323.15,-327.06"/>
<polygon fill="black" stroke="black" points="457.79,-375.2 468.38,-375.01 459.98,-368.55 457.79,-375.2"/>
</g>
<!-- util&#45;&gt;coreGeneric -->
<g id="edge5" class="edge">
<title>util&#45;&gt;coreGeneric</title>
<path fill="none" stroke="black" d="M524.44,-370.19C555.09,-358.07 601.17,-339.85 633.1,-327.22"/>
<polygon fill="black" stroke="black" points="523.08,-366.97 515.07,-373.9 525.65,-373.48 523.08,-366.97"/>
</g>
<!-- util&#45;&gt;callback -->
<g id="edge6" class="edge">
<title>util&#45;&gt;callback</title>
<path fill="none" stroke="black" d="M488.05,-355.91C486.69,-347.27 485.22,-337.94 484,-330.18"/>
<polygon fill="black" stroke="black" points="484.62,-356.63 489.63,-365.96 491.53,-355.54 484.62,-356.63"/>
</g>
</g>
</svg>
