<?xml version="1.0" encoding="UTF-8" standalone="no"?>
<!DOCTYPE svg PUBLIC "-//W3C//DTD SVG 1.1//EN"
 "http://www.w3.org/Graphics/SVG/1.1/DTD/svg11.dtd">
<!-- Generated by graphviz version 2.47.3 (0)
 -->
<!-- Title: G Pages: 1 -->
<svg width="1008pt" height="482pt"
 viewBox="0.00 0.00 1007.92 481.91" xmlns="http://www.w3.org/2000/svg" xmlns:xlink="http://www.w3.org/1999/xlink">
<g id="graph0" class="graph" transform="scale(1 1) rotate(0) translate(4 477.91)">
<title>G</title>
<polygon fill="white" stroke="transparent" points="-4,4 -4,-477.91 1003.92,-477.91 1003.92,4 -4,4"/>
<!-- scalafix -->
<g id="node1" class="node">
<title>scalafix</title>
<ellipse fill="lightgrey" stroke="black" cx="471.29" cy="-455.91" rx="46.29" ry="18"/>
<text text-anchor="middle" x="471.29" y="-452.21" font-family="Times,serif" font-size="14.00">scalafix</text>
</g>
<!-- utilCE -->
<g id="node2" class="node">
<title>utilCE</title>
<ellipse fill="lightgrey" stroke="black" cx="185.29" cy="-311.91" rx="79.09" ry="18"/>
<text text-anchor="middle" x="185.29" y="-308.21" font-family="Times,serif" font-size="14.00">util&#45;cats_effect</text>
</g>
<!-- catsEffect -->
<g id="node15" class="node">
<title>catsEffect</title>
<ellipse fill="orange" stroke="black" cx="355.29" cy="-128.95" rx="100.98" ry="18"/>
<text text-anchor="middle" x="355.29" y="-125.25" font-family="Times,serif" font-size="14.00">core&#45;ext&#45;cats_effect</text>
</g>
<!-- utilCE&#45;&gt;catsEffect -->
<g id="edge6" class="edge">
<title>utilCE&#45;&gt;catsEffect</title>
<path fill="none" stroke="black" d="M247.24,-295.48C282.4,-285.47 321.66,-271.76 333.29,-257.91 359.96,-226.15 359.66,-173.94 357.38,-147.09"/>
<polygon fill="black" stroke="black" points="246.15,-292.15 237.46,-298.2 248.03,-298.89 246.15,-292.15"/>
</g>
<!-- catsEffectC -->
<g id="node18" class="node">
<title>catsEffectC</title>
<path fill="skyblue" stroke="black" stroke-width="0.5" d="M118.29,-128.95C118.29,-128.95 236.37,-128.95 236.37,-128.95 236.37,-129.25 236.32,-129.54 236.23,-129.84 236.13,-130.13 235.99,-130.42 235.8,-130.72 235.61,-131.01 235.37,-131.3 235.09,-131.59 234.81,-131.89 234.48,-132.18 234.1,-132.46 233.72,-132.75 233.3,-133.04 232.83,-133.33 232.36,-133.61 231.85,-133.9 231.28,-134.18 230.72,-134.46 230.12,-134.74 229.47,-135.02 228.82,-135.29 228.12,-135.57 227.38,-135.84 226.64,-136.11 225.86,-136.38 225.03,-136.65 224.21,-136.92 223.34,-137.18 222.43,-137.44 221.52,-137.7 220.56,-137.95 219.57,-138.21 218.58,-138.46 217.54,-138.71 216.47,-138.95 215.4,-139.2 214.28,-139.44 213.13,-139.68 211.98,-139.91 210.79,-140.14 209.57,-140.37 208.34,-140.6 207.08,-140.82 205.78,-141.04 204.48,-141.26 203.15,-141.47 201.78,-141.68 200.42,-141.89 199.02,-142.09 197.59,-142.29 196.16,-142.49 194.69,-142.68 193.2,-142.87 191.7,-143.05 190.18,-143.24 188.63,-143.41 187.08,-143.59 185.5,-143.76 183.89,-143.92 182.28,-144.08 180.65,-144.24 178.99,-144.39 177.34,-144.54 175.66,-144.69 173.95,-144.83 172.25,-144.97 170.52,-145.1 168.77,-145.23 167.03,-145.35 165.26,-145.47 163.48,-145.58 161.69,-145.7 159.89,-145.8 158.07,-145.9 156.25,-146 154.42,-146.09 152.57,-146.18 150.72,-146.26 148.85,-146.34 146.98,-146.41 145.11,-146.49 143.22,-146.55 141.33,-146.61 139.43,-146.66 137.53,-146.72 135.62,-146.76 133.7,-146.8 131.79,-146.84 129.86,-146.87 127.94,-146.9 126.01,-146.92 124.08,-146.93 122.15,-146.95 120.22,-146.95 118.29,-146.95 116.36,-146.95 114.43,-146.95 112.5,-146.93 110.57,-146.92 108.64,-146.9 106.72,-146.87 104.79,-146.84 102.87,-146.8 100.96,-146.76 99.05,-146.72 97.15,-146.66 95.25,-146.61 93.36,-146.55 91.47,-146.49 89.6,-146.41 87.72,-146.34 85.86,-146.26 84.01,-146.18 82.16,-146.09 80.33,-146 78.51,-145.9 76.69,-145.8 74.89,-145.7 73.1,-145.58 71.32,-145.47 69.55,-145.35 67.8,-145.23 66.06,-145.1 64.33,-144.97 62.63,-144.83 60.92,-144.69 59.24,-144.54 57.58,-144.39 55.93,-144.24 54.29,-144.08 52.69,-143.92 51.08,-143.76 49.5,-143.59 47.95,-143.41 46.4,-143.24 44.87,-143.05 43.38,-142.87 41.89,-142.68 40.42,-142.49 38.99,-142.29 37.56,-142.09 36.16,-141.89 34.79,-141.68 33.43,-141.47 32.1,-141.26 30.8,-141.04 29.5,-140.82 28.24,-140.6 27.01,-140.37 25.79,-140.14 24.6,-139.91 23.45,-139.68 22.3,-139.44 21.18,-139.2 20.11,-138.95 19.04,-138.71 18,-138.46 17.01,-138.21 16.02,-137.95 15.06,-137.7 14.15,-137.44 13.24,-137.18 12.37,-136.92 11.55,-136.65 10.72,-136.38 9.94,-136.11 9.2,-135.84 8.46,-135.57 7.76,-135.29 7.11,-135.02 6.46,-134.74 5.86,-134.46 5.29,-134.18 4.73,-133.9 4.22,-133.61 3.75,-133.33 3.28,-133.04 2.86,-132.75 2.48,-132.46 2.1,-132.18 1.77,-131.89 1.49,-131.59 1.2,-131.3 0.97,-131.01 0.78,-130.72 0.59,-130.42 0.45,-130.13 0.35,-129.84 0.26,-129.54 0.21,-129.25 0.21,-128.95 0.21,-128.95 118.29,-128.95 118.29,-128.95"/>
<path fill="orange" stroke="black" stroke-width="0.5" d="M118.29,-128.95C118.29,-128.95 0.21,-128.95 0.21,-128.95 0.21,-128.66 0.26,-128.36 0.35,-128.07 0.45,-127.78 0.59,-127.48 0.78,-127.19 0.97,-126.9 1.2,-126.6 1.49,-126.31 1.77,-126.02 2.1,-125.73 2.48,-125.44 2.86,-125.15 3.28,-124.87 3.75,-124.58 4.22,-124.29 4.73,-124.01 5.29,-123.73 5.86,-123.45 6.46,-123.17 7.11,-122.89 7.76,-122.61 8.46,-122.34 9.2,-122.07 9.94,-121.79 10.72,-121.52 11.55,-121.26 12.37,-120.99 13.24,-120.73 14.15,-120.47 15.06,-120.21 16.02,-119.95 17.01,-119.7 18,-119.45 19.04,-119.2 20.11,-118.95 21.18,-118.71 22.3,-118.47 23.45,-118.23 24.6,-117.99 25.79,-117.76 27.01,-117.53 28.24,-117.31 29.5,-117.08 30.8,-116.87 32.1,-116.65 33.43,-116.43 34.79,-116.23 36.16,-116.02 37.56,-115.81 38.99,-115.62 40.42,-115.42 41.89,-115.23 43.38,-115.04 44.87,-114.85 46.4,-114.67 47.95,-114.5 49.5,-114.32 51.08,-114.15 52.69,-113.99 54.29,-113.82 55.93,-113.67 57.58,-113.51 59.24,-113.36 60.92,-113.22 62.63,-113.08 64.33,-112.94 66.06,-112.81 67.8,-112.68 69.55,-112.56 71.32,-112.44 73.1,-112.32 74.89,-112.21 76.69,-112.1 78.51,-112.01 80.33,-111.91 82.16,-111.81 84.01,-111.73 85.86,-111.64 87.72,-111.56 89.6,-111.49 91.47,-111.42 93.36,-111.36 95.25,-111.3 97.15,-111.24 99.05,-111.19 100.96,-111.15 102.87,-111.1 104.79,-111.07 106.72,-111.04 108.64,-111.01 110.57,-110.99 112.5,-110.98 114.43,-110.96 116.36,-110.95 118.29,-110.95 120.22,-110.95 122.15,-110.96 124.08,-110.98 126.01,-110.99 127.94,-111.01 129.86,-111.04 131.79,-111.07 133.7,-111.1 135.62,-111.15 137.53,-111.19 139.43,-111.24 141.33,-111.3 143.22,-111.36 145.11,-111.42 146.98,-111.49 148.85,-111.56 150.72,-111.64 152.57,-111.73 154.42,-111.81 156.25,-111.91 158.07,-112.01 159.89,-112.1 161.69,-112.21 163.48,-112.32 165.26,-112.44 167.03,-112.56 168.77,-112.68 170.52,-112.81 172.25,-112.94 173.95,-113.08 175.66,-113.22 177.34,-113.36 178.99,-113.51 180.65,-113.67 182.28,-113.82 183.89,-113.99 185.5,-114.15 187.08,-114.32 188.63,-114.5 190.18,-114.67 191.7,-114.85 193.2,-115.04 194.69,-115.23 196.16,-115.42 197.59,-115.62 199.02,-115.81 200.42,-116.02 201.78,-116.23 203.15,-116.43 204.48,-116.65 205.78,-116.87 207.08,-117.08 208.34,-117.31 209.57,-117.53 210.79,-117.76 211.98,-117.99 213.13,-118.23 214.28,-118.47 215.4,-118.71 216.47,-118.95 217.54,-119.2 218.58,-119.45 219.57,-119.7 220.56,-119.95 221.52,-120.21 222.43,-120.47 223.34,-120.73 224.21,-120.99 225.03,-121.26 225.86,-121.52 226.64,-121.79 227.38,-122.07 228.12,-122.34 228.82,-122.61 229.47,-122.89 230.12,-123.17 230.72,-123.45 231.28,-123.73 231.85,-124.01 232.36,-124.29 232.83,-124.58 233.3,-124.87 233.72,-125.15 234.1,-125.44 234.48,-125.73 234.81,-126.02 235.09,-126.31 235.37,-126.6 235.61,-126.9 235.8,-127.19 235.99,-127.48 236.13,-127.78 236.23,-128.07 236.32,-128.36 236.37,-128.66 236.37,-128.95 236.37,-128.95 118.29,-128.95 118.29,-128.95"/>
<ellipse fill="none" stroke="black" cx="118.29" cy="-128.95" rx="118.08" ry="18"/>
<text text-anchor="middle" x="118.29" y="-125.25" font-family="Times,serif" font-size="14.00">callback&#45;ext&#45;cats_effect</text>
</g>
<!-- utilCE&#45;&gt;catsEffectC -->
<g id="edge5" class="edge">
<title>utilCE&#45;&gt;catsEffectC</title>
<path fill="none" stroke="black" d="M159.41,-286.8C151.8,-278.37 144.2,-268.38 139.29,-257.91 121.98,-221.02 118.65,-172.33 118.18,-146.97"/>
<polygon fill="black" stroke="black" points="156.9,-289.24 166.33,-294.07 161.97,-284.42 156.9,-289.24"/>
</g>
<!-- utilDD -->
<g id="node3" class="node">
<title>utilDD</title>
<ellipse fill="lightgrey" stroke="black" cx="501.29" cy="-311.91" rx="104.78" ry="18"/>
<text text-anchor="middle" x="501.29" y="-308.21" font-family="Times,serif" font-size="14.00">util&#45;dummy&#45;defaults</text>
</g>
<!-- utilFallbacks -->
<g id="node4" class="node">
<title>utilFallbacks</title>
<ellipse fill="lightgrey" stroke="black" cx="605.29" cy="-455.91" rx="70.39" ry="18"/>
<text text-anchor="middle" x="605.29" y="-452.21" font-family="Times,serif" font-size="14.00">util&#45;fallbacks</text>
</g>
<!-- utilFallbacks&#45;&gt;utilDD -->
<g id="edge2" class="edge">
<title>utilFallbacks&#45;&gt;utilDD</title>
<path fill="none" stroke="black" d="M586.88,-429.77C565.9,-401.12 532.15,-355.05 513.94,-330.17"/>
<polygon fill="black" stroke="black" points="584.22,-432.06 592.95,-438.06 589.87,-427.92 584.22,-432.06"/>
</g>
<!-- core -->
<g id="node11" class="node">
<title>core</title>
<ellipse fill="skyblue" stroke="black" stroke-width="7" cx="540.29" cy="-220.43" rx="39.7" ry="37.45"/>
<text text-anchor="middle" x="540.29" y="-231.73" font-family="Times,serif" font-size="14.00"> </text>
<text text-anchor="middle" x="540.29" y="-216.73" font-family="Times,serif" font-size="14.00"> core </text>
<text text-anchor="middle" x="540.29" y="-201.73" font-family="Times,serif" font-size="14.00"> </text>
</g>
<!-- utilFallbacks&#45;&gt;core -->
<g id="edge25" class="edge">
<title>utilFallbacks&#45;&gt;core</title>
<path fill="none" stroke="black" d="M614.12,-427.76C623.31,-394.71 633.94,-337.87 615.29,-293.91 610.37,-282.32 588.69,-261.95 569.89,-245.75"/>
<polygon fill="black" stroke="black" points="610.69,-427.03 611.23,-437.61 617.41,-429 610.69,-427.03"/>
</g>
<!-- coreCE -->
<g id="node16" class="node">
<title>coreCE</title>
<ellipse fill="orange" stroke="black" stroke-width="7" cx="675.29" cy="-37.48" rx="135.11" ry="37.45"/>
<text text-anchor="middle" x="675.29" y="-48.78" font-family="Times,serif" font-size="14.00"> </text>
<text text-anchor="middle" x="675.29" y="-33.78" font-family="Times,serif" font-size="14.00"> core&#45;bundle&#45;cats_effect </text>
<text text-anchor="middle" x="675.29" y="-18.78" font-family="Times,serif" font-size="14.00"> </text>
</g>
<!-- utilFallbacks&#45;&gt;coreCE -->
<g id="edge26" class="edge">
<title>utilFallbacks&#45;&gt;coreCE</title>
<path fill="none" stroke="black" d="M674.13,-444.42C786.34,-425.36 996.29,-380.64 996.29,-312.91 996.29,-312.91 996.29,-312.91 996.29,-219.43 996.29,-170.48 1010.81,-146.62 977.29,-110.95 952.32,-84.38 869.44,-65.66 796.81,-53.9"/>
<polygon fill="black" stroke="black" points="673.53,-440.97 664.25,-446.07 674.69,-447.87 673.53,-440.97"/>
</g>
<!-- util -->
<g id="node19" class="node">
<title>util</title>
<ellipse fill="lightgrey" stroke="black" cx="501.29" cy="-383.91" rx="27" ry="18"/>
<text text-anchor="middle" x="501.29" y="-380.21" font-family="Times,serif" font-size="14.00">util</text>
</g>
<!-- utilFallbacks&#45;&gt;util -->
<g id="edge3" class="edge">
<title>utilFallbacks&#45;&gt;util</title>
<path fill="none" stroke="#999999" stroke-dasharray="5,2" d="M573.11,-433.25C555.49,-421.39 534.31,-407.13 519.53,-397.18"/>
<polygon fill="#999999" stroke="#999999" points="571.18,-436.17 581.43,-438.85 575.09,-430.36 571.18,-436.17"/>
</g>
<!-- coreGeneric -->
<g id="node5" class="node">
<title>coreGeneric</title>
<ellipse fill="lightgrey" stroke="black" cx="730.29" cy="-311.91" rx="68.49" ry="18"/>
<text text-anchor="middle" x="730.29" y="-308.21" font-family="Times,serif" font-size="14.00">core&#45;generic</text>
</g>
<!-- extra -->
<g id="node8" class="node">
<title>extra</title>
<ellipse fill="#bcee68" stroke="black" cx="791.29" cy="-220.43" rx="35.19" ry="18"/>
<text text-anchor="middle" x="791.29" y="-216.73" font-family="Times,serif" font-size="14.00">extra</text>
</g>
<!-- coreGeneric&#45;&gt;extra -->
<g id="edge13" class="edge">
<title>coreGeneric&#45;&gt;extra</title>
<path fill="none" stroke="black" d="M747.6,-285.52C758.1,-270.12 771.18,-250.93 780.28,-237.58"/>
<polygon fill="black" stroke="black" points="744.5,-283.84 741.76,-294.08 750.29,-287.79 744.5,-283.84"/>
</g>
<!-- coreGeneric&#45;&gt;core -->
<g id="edge12" class="edge">
<title>coreGeneric&#45;&gt;core</title>
<path fill="none" stroke="black" d="M676.97,-294.81C649.91,-285.67 616.99,-273.03 589.29,-257.91 582.77,-254.35 576.16,-250.01 569.98,-245.58"/>
<polygon fill="black" stroke="black" points="676.06,-298.2 686.65,-298.02 678.26,-291.55 676.06,-298.2"/>
</g>
<!-- cats -->
<g id="node12" class="node">
<title>cats</title>
<ellipse fill="#eeee00" stroke="black" cx="668.29" cy="-220.43" rx="70.39" ry="18"/>
<text text-anchor="middle" x="668.29" y="-216.73" font-family="Times,serif" font-size="14.00">core&#45;ext&#45;cats</text>
</g>
<!-- coreGeneric&#45;&gt;cats -->
<g id="edge16" class="edge">
<title>coreGeneric&#45;&gt;cats</title>
<path fill="none" stroke="black" d="M712.78,-285.63C702.25,-270.44 689.15,-251.54 679.9,-238.18"/>
<polygon fill="black" stroke="black" points="710.06,-287.85 718.63,-294.08 715.81,-283.86 710.06,-287.85"/>
</g>
<!-- facade -->
<g id="node6" class="node">
<title>facade</title>
<ellipse fill="#eeaeee" stroke="black" cx="798.29" cy="-383.91" rx="40.89" ry="18"/>
<text text-anchor="middle" x="798.29" y="-380.21" font-family="Times,serif" font-size="14.00">facade</text>
</g>
<!-- facade&#45;&gt;coreGeneric -->
<g id="edge11" class="edge">
<title>facade&#45;&gt;coreGeneric</title>
<path fill="none" stroke="black" d="M775.88,-359.84C766.32,-350 755.38,-338.73 746.61,-329.7"/>
<polygon fill="black" stroke="black" points="773.38,-362.29 782.86,-367.02 778.4,-357.41 773.38,-362.29"/>
</g>
<!-- facadeTest -->
<g id="node7" class="node">
<title>facadeTest</title>
<ellipse fill="#eeaeee" stroke="black" cx="906.29" cy="-220.43" rx="61.99" ry="18"/>
<text text-anchor="middle" x="906.29" y="-216.73" font-family="Times,serif" font-size="14.00">facade&#45;test</text>
</g>
<!-- facade&#45;&gt;facadeTest -->
<g id="edge9" class="edge">
<title>facade&#45;&gt;facadeTest</title>
<path fill="none" stroke="black" d="M815.04,-357.86C837.27,-324.62 875.92,-266.84 894.99,-238.33"/>
<polygon fill="black" stroke="black" points="811.89,-356.28 809.24,-366.53 817.71,-360.17 811.89,-356.28"/>
</g>
<!-- testUtil -->
<g id="node9" class="node">
<title>testUtil</title>
<ellipse fill="#bcee68" stroke="black" cx="939.29" cy="-128.95" rx="28.7" ry="18"/>
<text text-anchor="middle" x="939.29" y="-125.25" font-family="Times,serif" font-size="14.00">test</text>
</g>
<!-- facadeTest&#45;&gt;testUtil -->
<g id="edge15" class="edge">
<title>facadeTest&#45;&gt;testUtil</title>
<path fill="none" stroke="black" d="M916.24,-192.44C921.75,-177.5 928.43,-159.41 933.17,-146.55"/>
<polygon fill="black" stroke="black" points="912.83,-191.58 912.65,-202.18 919.4,-194.01 912.83,-191.58"/>
</g>
<!-- extra&#45;&gt;testUtil -->
<g id="edge14" class="edge">
<title>extra&#45;&gt;testUtil</title>
<path fill="none" stroke="black" d="M815.74,-197.55C821.92,-192.48 828.68,-187.3 835.29,-182.95 849.68,-173.49 890.82,-153.22 916.84,-140.67"/>
<polygon fill="black" stroke="black" points="813.12,-195.18 807.75,-204.31 817.64,-200.52 813.12,-195.18"/>
</g>
<!-- monocle2 -->
<g id="node13" class="node">
<title>monocle2</title>
<ellipse fill="#eeee00" stroke="black" cx="574.29" cy="-128.95" rx="100.18" ry="18"/>
<text text-anchor="middle" x="574.29" y="-125.25" font-family="Times,serif" font-size="14.00">extra&#45;ext&#45;monocle2</text>
</g>
<!-- extra&#45;&gt;monocle2 -->
<g id="edge22" class="edge">
<title>extra&#45;&gt;monocle2</title>
<path fill="none" stroke="black" d="M768.09,-197.32C761.71,-192.07 754.53,-186.86 747.29,-182.95 713.01,-164.46 671.35,-151.45 637.5,-142.94"/>
<polygon fill="black" stroke="black" points="765.85,-200.01 775.7,-203.9 770.43,-194.72 765.85,-200.01"/>
</g>
<!-- monocle3 -->
<g id="node14" class="node">
<title>monocle3</title>
<ellipse fill="#eeee00" stroke="black" cx="792.29" cy="-128.95" rx="100.18" ry="18"/>
<text text-anchor="middle" x="792.29" y="-125.25" font-family="Times,serif" font-size="14.00">extra&#45;ext&#45;monocle3</text>
</g>
<!-- extra&#45;&gt;monocle3 -->
<g id="edge23" class="edge">
<title>extra&#45;&gt;monocle3</title>
<path fill="none" stroke="black" d="M791.59,-192.15C791.76,-177.5 791.95,-159.89 792.1,-147.15"/>
<polygon fill="black" stroke="black" points="788.09,-192.14 791.48,-202.18 795.09,-192.22 788.09,-192.14"/>
</g>
<!-- callback -->
<g id="node10" class="node">
<title>callback</title>
<ellipse fill="skyblue" stroke="black" cx="330.29" cy="-311.91" rx="48.19" ry="18"/>
<text text-anchor="middle" x="330.29" y="-308.21" font-family="Times,serif" font-size="14.00">callback</text>
</g>
<!-- callback&#45;&gt;core -->
<g id="edge10" class="edge">
<title>callback&#45;&gt;core</title>
<path fill="none" stroke="black" d="M370.23,-293.89C408.95,-277.39 467.16,-252.59 504.44,-236.71"/>
<polygon fill="black" stroke="black" points="368.65,-290.76 360.83,-297.9 371.4,-297.2 368.65,-290.76"/>
</g>
<!-- catsC -->
<g id="node17" class="node">
<title>catsC</title>
<path fill="skyblue" stroke="black" stroke-width="0.5" d="M236.29,-220.43C236.29,-220.43 324.27,-220.43 324.27,-220.43 324.27,-221.02 324.13,-221.61 323.85,-222.19 323.57,-222.78 323.15,-223.36 322.58,-223.94 322.02,-224.52 321.32,-225.09 320.49,-225.66 319.65,-226.22 318.68,-226.77 317.58,-227.32 316.48,-227.86 315.24,-228.4 313.89,-228.92 312.53,-229.43 311.05,-229.94 309.45,-230.43 307.85,-230.92 306.13,-231.39 304.3,-231.85 302.48,-232.3 300.54,-232.74 298.5,-233.16 296.47,-233.57 294.33,-233.97 292.11,-234.34 289.88,-234.72 287.57,-235.07 285.17,-235.4 282.78,-235.72 280.31,-236.03 277.77,-236.3 275.23,-236.58 272.62,-236.83 269.96,-237.06 267.3,-237.29 264.59,-237.48 261.83,-237.65 259.07,-237.83 256.28,-237.97 253.45,-238.08 250.63,-238.2 247.78,-238.29 244.91,-238.34 242.05,-238.4 239.17,-238.43 236.29,-238.43 233.41,-238.43 230.53,-238.4 227.67,-238.34 224.8,-238.29 221.95,-238.2 219.12,-238.08 216.3,-237.97 213.5,-237.83 210.75,-237.65 207.99,-237.48 205.28,-237.29 202.62,-237.06 199.96,-236.83 197.35,-236.58 194.81,-236.3 192.27,-236.03 189.8,-235.72 187.41,-235.4 185.01,-235.07 182.7,-234.72 180.47,-234.34 178.25,-233.97 176.11,-233.57 174.07,-233.16 172.04,-232.74 170.1,-232.3 168.28,-231.85 166.45,-231.39 164.73,-230.92 163.13,-230.43 161.53,-229.94 160.05,-229.43 158.69,-228.92 157.34,-228.4 156.1,-227.86 155,-227.32 153.9,-226.77 152.93,-226.22 152.09,-225.66 151.26,-225.09 150.56,-224.52 150,-223.94 149.43,-223.36 149.01,-222.78 148.73,-222.19 148.45,-221.61 148.3,-221.02 148.3,-220.43 148.3,-220.43 236.29,-220.43 236.29,-220.43"/>
<path fill="orange" stroke="black" stroke-width="0.5" d="M236.29,-220.43C236.29,-220.43 148.3,-220.43 148.3,-220.43 148.3,-219.84 148.45,-219.25 148.73,-218.67 149.01,-218.08 149.43,-217.5 150,-216.92 150.56,-216.34 151.26,-215.77 152.09,-215.2 152.93,-214.64 153.9,-214.09 155,-213.54 156.1,-213 157.34,-212.46 158.69,-211.94 160.05,-211.43 161.53,-210.92 163.13,-210.43 164.73,-209.94 166.45,-209.47 168.28,-209.01 170.1,-208.56 172.04,-208.12 174.07,-207.7 176.11,-207.29 178.25,-206.89 180.47,-206.52 182.7,-206.14 185.01,-205.79 187.41,-205.46 189.8,-205.14 192.27,-204.83 194.81,-204.56 197.35,-204.28 199.96,-204.03 202.62,-203.8 205.28,-203.57 207.99,-203.38 210.75,-203.21 213.5,-203.03 216.3,-202.89 219.12,-202.78 221.95,-202.66 224.8,-202.57 227.67,-202.52 230.53,-202.46 233.41,-202.43 236.29,-202.43 239.17,-202.43 242.05,-202.46 244.91,-202.52 247.78,-202.57 250.63,-202.66 253.45,-202.78 256.28,-202.89 259.07,-203.03 261.83,-203.21 264.59,-203.38 267.3,-203.57 269.96,-203.8 272.62,-204.03 275.23,-204.28 277.77,-204.56 280.31,-204.83 282.78,-205.14 285.17,-205.46 287.57,-205.79 289.88,-206.14 292.11,-206.52 294.33,-206.89 296.47,-207.29 298.5,-207.7 300.54,-208.12 302.48,-208.56 304.3,-209.01 306.13,-209.47 307.85,-209.94 309.45,-210.43 311.05,-210.92 312.53,-211.43 313.89,-211.94 315.24,-212.46 316.48,-213 317.58,-213.54 318.68,-214.09 319.65,-214.64 320.49,-215.2 321.32,-215.77 322.02,-216.34 322.58,-216.92 323.15,-217.5 323.57,-218.08 323.85,-218.67 324.13,-219.25 324.27,-219.84 324.27,-220.43 324.27,-220.43 236.29,-220.43 236.29,-220.43"/>
<ellipse fill="none" stroke="black" cx="236.29" cy="-220.43" rx="87.99" ry="18"/>
<text text-anchor="middle" x="236.29" y="-216.73" font-family="Times,serif" font-size="14.00">callback&#45;ext&#45;cats</text>
</g>
<!-- callback&#45;&gt;catsC -->
<g id="edge18" class="edge">
<title>callback&#45;&gt;catsC</title>
<path fill="none" stroke="black" d="M305.92,-287.71C289.63,-272.2 268.58,-252.17 253.91,-238.2"/>
<polygon fill="black" stroke="black" points="303.83,-290.55 313.48,-294.91 308.65,-285.48 303.83,-290.55"/>
</g>
<!-- cats&#45;&gt;monocle2 -->
<g id="edge20" class="edge">
<title>cats&#45;&gt;monocle2</title>
<path fill="none" stroke="black" d="M643.07,-195.43C626.9,-180.03 606.31,-160.43 591.89,-146.71"/>
<polygon fill="black" stroke="black" points="640.95,-198.24 650.61,-202.6 645.78,-193.17 640.95,-198.24"/>
</g>
<!-- cats&#45;&gt;monocle3 -->
<g id="edge21" class="edge">
<title>cats&#45;&gt;monocle3</title>
<path fill="none" stroke="black" d="M698.99,-197.28C720.7,-181.61 749.36,-160.93 769.16,-146.64"/>
<polygon fill="black" stroke="black" points="696.81,-194.54 690.74,-203.23 700.9,-200.21 696.81,-194.54"/>
</g>
<!-- cats&#45;&gt;catsEffect -->
<g id="edge17" class="edge">
<title>cats&#45;&gt;catsEffect</title>
<path fill="none" stroke="black" d="M629.59,-199.59C616.97,-193.66 602.74,-187.52 589.29,-182.95 535.56,-164.69 472.73,-150.85 425.72,-141.91"/>
<polygon fill="black" stroke="black" points="628.35,-202.88 638.88,-204.06 631.39,-196.57 628.35,-202.88"/>
</g>
<!-- catsEffect&#45;&gt;coreCE -->
<g id="edge24" class="edge">
<title>catsEffect&#45;&gt;coreCE</title>
<path fill="none" stroke="black" d="M416.75,-110.77C463.53,-97.69 528.72,-79.46 581.94,-64.58"/>
<polygon fill="black" stroke="black" points="415.75,-107.41 407.06,-113.48 417.63,-114.16 415.75,-107.41"/>
</g>
<!-- catsC&#45;&gt;catsEffectC -->
<g id="edge19" class="edge">
<title>catsC&#45;&gt;catsEffectC</title>
<path fill="none" stroke="black" d="M206.29,-196.68C185.8,-181.14 159.08,-160.89 140.49,-146.79"/>
<polygon fill="black" stroke="black" points="204.29,-199.56 214.37,-202.81 208.52,-193.98 204.29,-199.56"/>
</g>
<!-- util&#45;&gt;utilCE -->
<g id="edge4" class="edge">
<title>util&#45;&gt;utilCE</title>
<path fill="none" stroke="black" d="M466.02,-375.09C411.13,-362.93 304.85,-339.39 239.97,-325.02"/>
<polygon fill="black" stroke="black" points="465.44,-378.55 475.96,-377.3 466.96,-371.72 465.44,-378.55"/>
</g>
<!-- util&#45;&gt;utilDD -->
<g id="edge1" class="edge">
<title>util&#45;&gt;utilDD</title>
<path fill="none" stroke="black" d="M501.29,-355.57C501.29,-346.96 501.29,-337.7 501.29,-330.01"/>
<polygon fill="black" stroke="black" points="497.79,-355.6 501.29,-365.6 504.79,-355.6 497.79,-355.6"/>
</g>
<!-- util&#45;&gt;coreGeneric -->
<g id="edge7" class="edge">
<title>util&#45;&gt;coreGeneric</title>
<path fill="none" stroke="black" d="M535.03,-372.59C575.51,-360.22 643.43,-339.46 687.54,-325.97"/>
<polygon fill="black" stroke="black" points="533.9,-369.28 525.36,-375.55 535.95,-375.97 533.9,-369.28"/>
</g>
<!-- util&#45;&gt;callback -->
<g id="edge8" class="edge">
<title>util&#45;&gt;callback</title>
<path fill="none" stroke="black" d="M469.53,-369.9C438.73,-357.3 392.31,-338.29 361.65,-325.74"/>
<polygon fill="black" stroke="black" points="468.35,-373.21 478.93,-373.76 471.01,-366.73 468.35,-373.21"/>
</g>
</g>
</svg>
