<?xml version="1.0" encoding="UTF-8" standalone="no"?>
<!DOCTYPE svg PUBLIC "-//W3C//DTD SVG 1.1//EN"
 "http://www.w3.org/Graphics/SVG/1.1/DTD/svg11.dtd">
<!-- Generated by graphviz version 2.47.3 (0)
 -->
<!-- Title: G Pages: 1 -->
<svg width="1003pt" height="482pt"
 viewBox="0.00 0.00 1002.62 481.91" xmlns="http://www.w3.org/2000/svg" xmlns:xlink="http://www.w3.org/1999/xlink">
<g id="graph0" class="graph" transform="scale(1 1) rotate(0) translate(4 477.91)">
<title>G</title>
<polygon fill="white" stroke="transparent" points="-4,4 -4,-477.91 998.62,-477.91 998.62,4 -4,4"/>
<!-- utilFallbacks -->
<g id="node1" class="node">
<title>utilFallbacks</title>
<ellipse fill="lightgrey" stroke="black" cx="372.63" cy="-455.91" rx="70.39" ry="18"/>
<text text-anchor="middle" x="372.63" y="-452.21" font-family="Times,serif" font-size="14.00">util&#45;fallbacks</text>
</g>
<!-- core -->
<g id="node7" class="node">
<title>core</title>
<ellipse fill="skyblue" stroke="black" stroke-width="7" cx="458.63" cy="-220.43" rx="39.7" ry="37.45"/>
<text text-anchor="middle" x="458.63" y="-231.73" font-family="Times,serif" font-size="14.00"> </text>
<text text-anchor="middle" x="458.63" y="-216.73" font-family="Times,serif" font-size="14.00"> core </text>
<text text-anchor="middle" x="458.63" y="-201.73" font-family="Times,serif" font-size="14.00"> </text>
</g>
<!-- utilFallbacks&#45;&gt;core -->
<g id="edge20" class="edge">
<title>utilFallbacks&#45;&gt;core</title>
<path fill="none" stroke="black" d="M405.98,-433C436.1,-411.03 478.4,-374.15 496.63,-329.91 507.34,-303.89 494.73,-273.63 481.23,-251.68"/>
<polygon fill="black" stroke="black" points="403.57,-430.42 397.45,-439.07 407.63,-436.12 403.57,-430.42"/>
</g>
<!-- coreCE -->
<g id="node12" class="node">
<title>coreCE</title>
<ellipse fill="orange" stroke="black" stroke-width="7" cx="323.63" cy="-37.48" rx="95.42" ry="37.45"/>
<text text-anchor="middle" x="323.63" y="-48.78" font-family="Times,serif" font-size="14.00"> </text>
<text text-anchor="middle" x="323.63" y="-33.78" font-family="Times,serif" font-size="14.00"> core&#45;cats&#45;effect </text>
<text text-anchor="middle" x="323.63" y="-18.78" font-family="Times,serif" font-size="14.00"> </text>
</g>
<!-- utilFallbacks&#45;&gt;coreCE -->
<g id="edge21" class="edge">
<title>utilFallbacks&#45;&gt;coreCE</title>
<path fill="none" stroke="black" d="M296.71,-448.3C244.44,-441.59 174.45,-428.24 117.63,-401.91 59.3,-374.88 3.63,-377.19 3.63,-312.91 3.63,-312.91 3.63,-312.91 3.63,-219.43 3.63,-170.48 -10.88,-146.63 22.63,-110.95 51.1,-80.64 155.13,-60.49 232.98,-49.29"/>
<polygon fill="black" stroke="black" points="296.56,-451.81 306.92,-449.56 297.42,-444.86 296.56,-451.81"/>
</g>
<!-- util -->
<g id="node15" class="node">
<title>util</title>
<ellipse fill="lightgrey" stroke="black" cx="372.63" cy="-383.91" rx="27" ry="18"/>
<text text-anchor="middle" x="372.63" y="-380.21" font-family="Times,serif" font-size="14.00">util</text>
</g>
<!-- utilFallbacks&#45;&gt;util -->
<g id="edge1" class="edge">
<title>utilFallbacks&#45;&gt;util</title>
<path fill="none" stroke="#999999" stroke-dasharray="5,2" d="M372.63,-427.57C372.63,-418.96 372.63,-409.7 372.63,-402.01"/>
<polygon fill="#999999" stroke="#999999" points="369.13,-427.6 372.63,-437.6 376.13,-427.6 369.13,-427.6"/>
</g>
<!-- facadeTest -->
<g id="node2" class="node">
<title>facadeTest</title>
<ellipse fill="lightgrey" stroke="black" cx="116.63" cy="-311.91" rx="61.99" ry="18"/>
<text text-anchor="middle" x="116.63" y="-308.21" font-family="Times,serif" font-size="14.00">facade&#45;test</text>
</g>
<!-- testUtil -->
<g id="node5" class="node">
<title>testUtil</title>
<ellipse fill="#bcee68" stroke="black" cx="60.63" cy="-128.95" rx="28.7" ry="18"/>
<text text-anchor="middle" x="60.63" y="-125.25" font-family="Times,serif" font-size="14.00">test</text>
</g>
<!-- facadeTest&#45;&gt;testUtil -->
<g id="edge10" class="edge">
<title>facadeTest&#45;&gt;testUtil</title>
<path fill="none" stroke="black" d="M108.32,-284.06C96.6,-246.21 75.58,-178.27 65.84,-146.8"/>
<polygon fill="black" stroke="black" points="105.06,-285.36 111.36,-293.88 111.74,-283.3 105.06,-285.36"/>
</g>
<!-- coreGeneric -->
<g id="node3" class="node">
<title>coreGeneric</title>
<ellipse fill="lightgrey" stroke="black" cx="305.63" cy="-311.91" rx="68.49" ry="18"/>
<text text-anchor="middle" x="305.63" y="-308.21" font-family="Times,serif" font-size="14.00">core&#45;generic</text>
</g>
<!-- extra -->
<g id="node4" class="node">
<title>extra</title>
<ellipse fill="#bcee68" stroke="black" cx="207.63" cy="-220.43" rx="35.19" ry="18"/>
<text text-anchor="middle" x="207.63" y="-216.73" font-family="Times,serif" font-size="14.00">extra</text>
</g>
<!-- coreGeneric&#45;&gt;extra -->
<g id="edge8" class="edge">
<title>coreGeneric&#45;&gt;extra</title>
<path fill="none" stroke="black" d="M279.97,-287.48C262.34,-271.38 239.44,-250.48 224.18,-236.55"/>
<polygon fill="black" stroke="black" points="277.91,-290.34 287.65,-294.5 282.63,-285.17 277.91,-290.34"/>
</g>
<!-- coreGeneric&#45;&gt;core -->
<g id="edge7" class="edge">
<title>coreGeneric&#45;&gt;core</title>
<path fill="none" stroke="black" d="M347.42,-291.61C366.77,-282.18 389.8,-270.22 409.63,-257.91 415.93,-253.99 422.45,-249.49 428.6,-245.01"/>
<polygon fill="black" stroke="black" points="345.74,-288.53 338.25,-296.03 348.78,-294.84 345.74,-288.53"/>
</g>
<!-- cats -->
<g id="node8" class="node">
<title>cats</title>
<ellipse fill="#eeee00" stroke="black" cx="330.63" cy="-220.43" rx="70.39" ry="18"/>
<text text-anchor="middle" x="330.63" y="-216.73" font-family="Times,serif" font-size="14.00">core&#45;ext&#45;cats</text>
</g>
<!-- coreGeneric&#45;&gt;cats -->
<g id="edge11" class="edge">
<title>coreGeneric&#45;&gt;cats</title>
<path fill="none" stroke="black" d="M313.25,-283.62C317.34,-268.97 322.26,-251.37 325.82,-238.63"/>
<polygon fill="black" stroke="black" points="309.77,-283.08 310.45,-293.65 316.51,-284.97 309.77,-283.08"/>
</g>
<!-- extra&#45;&gt;testUtil -->
<g id="edge9" class="edge">
<title>extra&#45;&gt;testUtil</title>
<path fill="none" stroke="black" d="M177.04,-200.82C148.05,-183.17 105.34,-157.17 80.52,-142.06"/>
<polygon fill="black" stroke="black" points="175.57,-204.02 185.94,-206.23 179.21,-198.04 175.57,-204.02"/>
</g>
<!-- monocle2 -->
<g id="node9" class="node">
<title>monocle2</title>
<ellipse fill="#eeee00" stroke="black" cx="425.63" cy="-128.95" rx="100.18" ry="18"/>
<text text-anchor="middle" x="425.63" y="-125.25" font-family="Times,serif" font-size="14.00">extra&#45;ext&#45;monocle2</text>
</g>
<!-- extra&#45;&gt;monocle2 -->
<g id="edge17" class="edge">
<title>extra&#45;&gt;monocle2</title>
<path fill="none" stroke="black" d="M230.82,-197.31C237.21,-192.06 244.38,-186.86 251.63,-182.95 286.1,-164.39 328,-151.37 362.05,-142.89"/>
<polygon fill="black" stroke="black" points="228.48,-194.71 223.21,-203.9 233.06,-200 228.48,-194.71"/>
</g>
<!-- monocle3 -->
<g id="node10" class="node">
<title>monocle3</title>
<ellipse fill="#eeee00" stroke="black" cx="207.63" cy="-128.95" rx="100.18" ry="18"/>
<text text-anchor="middle" x="207.63" y="-125.25" font-family="Times,serif" font-size="14.00">extra&#45;ext&#45;monocle3</text>
</g>
<!-- extra&#45;&gt;monocle3 -->
<g id="edge18" class="edge">
<title>extra&#45;&gt;monocle3</title>
<path fill="none" stroke="black" d="M207.63,-192.15C207.63,-177.5 207.63,-159.89 207.63,-147.15"/>
<polygon fill="black" stroke="black" points="204.13,-192.18 207.63,-202.18 211.13,-192.18 204.13,-192.18"/>
</g>
<!-- callback -->
<g id="node6" class="node">
<title>callback</title>
<ellipse fill="skyblue" stroke="black" cx="439.63" cy="-311.91" rx="48.19" ry="18"/>
<text text-anchor="middle" x="439.63" y="-308.21" font-family="Times,serif" font-size="14.00">callback</text>
</g>
<!-- callback&#45;&gt;core -->
<g id="edge5" class="edge">
<title>callback&#45;&gt;core</title>
<path fill="none" stroke="black" d="M445.38,-283.79C447.14,-275.52 449.1,-266.29 450.96,-257.52"/>
<polygon fill="black" stroke="black" points="441.94,-283.15 443.29,-293.65 448.79,-284.6 441.94,-283.15"/>
</g>
<!-- catsC -->
<g id="node13" class="node">
<title>catsC</title>
<path fill="skyblue" stroke="black" stroke-width="0.5" d="M740.63,-220.43C740.63,-220.43 828.61,-220.43 828.61,-220.43 828.61,-221.02 828.47,-221.61 828.19,-222.19 827.91,-222.78 827.48,-223.36 826.92,-223.94 826.36,-224.52 825.66,-225.09 824.82,-225.66 823.99,-226.22 823.02,-226.77 821.91,-227.32 820.81,-227.86 819.58,-228.4 818.22,-228.92 816.86,-229.43 815.38,-229.94 813.78,-230.43 812.18,-230.92 810.47,-231.39 808.64,-231.85 806.81,-232.3 804.88,-232.74 802.84,-233.16 800.8,-233.57 798.67,-233.97 796.44,-234.34 794.22,-234.72 791.9,-235.07 789.51,-235.4 787.11,-235.72 784.64,-236.03 782.1,-236.3 779.56,-236.58 776.96,-236.83 774.3,-237.06 771.64,-237.29 768.92,-237.48 766.17,-237.65 763.41,-237.83 760.62,-237.97 757.79,-238.08 754.97,-238.2 752.12,-238.29 749.25,-238.34 746.38,-238.4 743.51,-238.43 740.63,-238.43 737.75,-238.43 734.87,-238.4 732,-238.34 729.14,-238.29 726.29,-238.2 723.46,-238.08 720.64,-237.97 717.84,-237.83 715.09,-237.65 712.33,-237.48 709.62,-237.29 706.96,-237.06 704.3,-236.83 701.69,-236.58 699.15,-236.3 696.61,-236.03 694.14,-235.72 691.74,-235.4 689.35,-235.07 687.04,-234.72 684.81,-234.34 682.58,-233.97 680.45,-233.57 678.41,-233.16 676.37,-232.74 674.44,-232.3 672.61,-231.85 670.79,-231.39 669.07,-230.92 667.47,-230.43 665.87,-229.94 664.39,-229.43 663.03,-228.92 661.67,-228.4 660.44,-227.86 659.34,-227.32 658.24,-226.77 657.27,-226.22 656.43,-225.66 655.59,-225.09 654.89,-224.52 654.33,-223.94 653.77,-223.36 653.35,-222.78 653.06,-222.19 652.78,-221.61 652.64,-221.02 652.64,-220.43 652.64,-220.43 740.63,-220.43 740.63,-220.43"/>
<path fill="orange" stroke="black" stroke-width="0.5" d="M740.63,-220.43C740.63,-220.43 652.64,-220.43 652.64,-220.43 652.64,-219.84 652.78,-219.25 653.06,-218.67 653.35,-218.08 653.77,-217.5 654.33,-216.92 654.89,-216.34 655.59,-215.77 656.43,-215.2 657.27,-214.64 658.24,-214.09 659.34,-213.54 660.44,-213 661.67,-212.46 663.03,-211.94 664.39,-211.43 665.87,-210.92 667.47,-210.43 669.07,-209.94 670.79,-209.47 672.61,-209.01 674.44,-208.56 676.37,-208.12 678.41,-207.7 680.45,-207.29 682.58,-206.89 684.81,-206.52 687.04,-206.14 689.35,-205.79 691.74,-205.46 694.14,-205.14 696.61,-204.83 699.15,-204.56 701.69,-204.28 704.3,-204.03 706.96,-203.8 709.62,-203.57 712.33,-203.38 715.09,-203.21 717.84,-203.03 720.64,-202.89 723.46,-202.78 726.29,-202.66 729.14,-202.57 732,-202.52 734.87,-202.46 737.75,-202.43 740.63,-202.43 743.51,-202.43 746.38,-202.46 749.25,-202.52 752.12,-202.57 754.97,-202.66 757.79,-202.78 760.62,-202.89 763.41,-203.03 766.17,-203.21 768.92,-203.38 771.64,-203.57 774.3,-203.8 776.96,-204.03 779.56,-204.28 782.1,-204.56 784.64,-204.83 787.11,-205.14 789.51,-205.46 791.9,-205.79 794.22,-206.14 796.44,-206.52 798.67,-206.89 800.8,-207.29 802.84,-207.7 804.88,-208.12 806.81,-208.56 808.64,-209.01 810.47,-209.47 812.18,-209.94 813.78,-210.43 815.38,-210.92 816.86,-211.43 818.22,-211.94 819.58,-212.46 820.81,-213 821.91,-213.54 823.02,-214.09 823.99,-214.64 824.82,-215.2 825.66,-215.77 826.36,-216.34 826.92,-216.92 827.48,-217.5 827.91,-218.08 828.19,-218.67 828.47,-219.25 828.61,-219.84 828.61,-220.43 828.61,-220.43 740.63,-220.43 740.63,-220.43"/>
<ellipse fill="none" stroke="black" cx="740.63" cy="-220.43" rx="87.99" ry="18"/>
<text text-anchor="middle" x="740.63" y="-216.73" font-family="Times,serif" font-size="14.00">callback&#45;ext&#45;cats</text>
</g>
<!-- callback&#45;&gt;catsC -->
<g id="edge13" class="edge">
<title>callback&#45;&gt;catsC</title>
<path fill="none" stroke="black" d="M485.91,-297.15C542.03,-280.46 636.12,-252.49 692.89,-235.62"/>
<polygon fill="black" stroke="black" points="484.82,-293.82 476.23,-300.02 486.82,-300.53 484.82,-293.82"/>
</g>
<!-- cats&#45;&gt;monocle2 -->
<g id="edge15" class="edge">
<title>cats&#45;&gt;monocle2</title>
<path fill="none" stroke="black" d="M356.11,-195.43C372.46,-180.03 393.26,-160.43 407.84,-146.71"/>
<polygon fill="black" stroke="black" points="353.37,-193.2 348.49,-202.6 358.17,-198.29 353.37,-193.2"/>
</g>
<!-- cats&#45;&gt;monocle3 -->
<g id="edge16" class="edge">
<title>cats&#45;&gt;monocle3</title>
<path fill="none" stroke="black" d="M300.17,-197.28C278.63,-181.61 250.21,-160.93 230.57,-146.64"/>
<polygon fill="black" stroke="black" points="298.21,-200.17 308.35,-203.23 302.32,-194.51 298.21,-200.17"/>
</g>
<!-- catsEffect -->
<g id="node11" class="node">
<title>catsEffect</title>
<ellipse fill="orange" stroke="black" cx="643.63" cy="-128.95" rx="99.38" ry="18"/>
<text text-anchor="middle" x="643.63" y="-125.25" font-family="Times,serif" font-size="14.00">core&#45;ext&#45;cats&#45;effect</text>
</g>
<!-- cats&#45;&gt;catsEffect -->
<g id="edge12" class="edge">
<title>cats&#45;&gt;catsEffect</title>
<path fill="none" stroke="black" d="M369.33,-199.59C381.95,-193.66 396.18,-187.52 409.63,-182.95 463.56,-164.62 526.64,-150.75 573.71,-141.81"/>
<polygon fill="black" stroke="black" points="367.53,-196.57 360.03,-204.06 370.56,-202.88 367.53,-196.57"/>
</g>
<!-- catsEffect&#45;&gt;coreCE -->
<g id="edge19" class="edge">
<title>catsEffect&#45;&gt;coreCE</title>
<path fill="none" stroke="black" d="M582.14,-110.76C530.38,-96.29 456.09,-75.52 400.42,-59.95"/>
<polygon fill="black" stroke="black" points="581.28,-114.16 591.86,-113.48 583.17,-107.41 581.28,-114.16"/>
</g>
<!-- catsEffectC -->
<g id="node14" class="node">
<title>catsEffectC</title>
<path fill="skyblue" stroke="black" stroke-width="0.5" d="M877.63,-128.95C877.63,-128.95 994.61,-128.95 994.61,-128.95 994.61,-129.25 994.56,-129.54 994.46,-129.84 994.37,-130.13 994.23,-130.42 994.04,-130.72 993.85,-131.01 993.62,-131.3 993.34,-131.59 993.06,-131.89 992.73,-132.18 992.36,-132.46 991.98,-132.75 991.56,-133.04 991.1,-133.33 990.63,-133.61 990.12,-133.9 989.57,-134.18 989.01,-134.46 988.41,-134.74 987.77,-135.02 987.12,-135.29 986.43,-135.57 985.7,-135.84 984.97,-136.11 984.19,-136.38 983.37,-136.65 982.56,-136.92 981.69,-137.18 980.79,-137.44 979.89,-137.7 978.95,-137.95 977.96,-138.21 976.98,-138.46 975.95,-138.71 974.89,-138.95 973.83,-139.2 972.73,-139.44 971.58,-139.68 970.44,-139.91 969.27,-140.14 968.05,-140.37 966.84,-140.6 965.59,-140.82 964.3,-141.04 963.02,-141.26 961.7,-141.47 960.34,-141.68 958.99,-141.89 957.6,-142.09 956.18,-142.29 954.77,-142.49 953.32,-142.68 951.84,-142.87 950.36,-143.05 948.85,-143.24 947.31,-143.41 945.77,-143.59 944.21,-143.76 942.62,-143.92 941.02,-144.08 939.41,-144.24 937.77,-144.39 936.12,-144.54 934.46,-144.69 932.77,-144.83 931.08,-144.97 929.37,-145.1 927.64,-145.23 925.91,-145.35 924.16,-145.47 922.39,-145.58 920.62,-145.7 918.84,-145.8 917.04,-145.9 915.23,-146 913.42,-146.09 911.58,-146.18 909.75,-146.26 907.91,-146.34 906.05,-146.41 904.19,-146.49 902.33,-146.55 900.45,-146.61 898.57,-146.66 896.68,-146.72 894.79,-146.76 892.9,-146.8 891,-146.84 889.09,-146.87 887.19,-146.9 885.28,-146.92 883.37,-146.93 881.45,-146.95 879.54,-146.95 877.63,-146.95 875.71,-146.95 873.8,-146.95 871.89,-146.93 869.97,-146.92 868.07,-146.9 866.16,-146.87 864.26,-146.84 862.36,-146.8 860.46,-146.76 858.57,-146.72 856.68,-146.66 854.8,-146.61 852.93,-146.55 851.06,-146.49 849.2,-146.41 847.35,-146.34 845.5,-146.26 843.67,-146.18 841.84,-146.09 840.02,-146 838.22,-145.9 836.41,-145.8 834.63,-145.7 832.86,-145.58 831.09,-145.47 829.34,-145.35 827.61,-145.23 825.88,-145.1 824.17,-144.97 822.48,-144.83 820.79,-144.69 819.13,-144.54 817.49,-144.39 815.84,-144.24 814.23,-144.08 812.64,-143.92 811.04,-143.76 809.48,-143.59 807.94,-143.41 806.4,-143.24 804.89,-143.05 803.42,-142.87 801.94,-142.68 800.49,-142.49 799.07,-142.29 797.65,-142.09 796.26,-141.89 794.91,-141.68 793.56,-141.47 792.24,-141.26 790.95,-141.04 789.66,-140.82 788.41,-140.6 787.2,-140.37 785.99,-140.14 784.81,-139.91 783.67,-139.68 782.53,-139.44 781.42,-139.2 780.36,-138.95 779.3,-138.71 778.27,-138.46 777.29,-138.21 776.31,-137.95 775.36,-137.7 774.46,-137.44 773.56,-137.18 772.7,-136.92 771.88,-136.65 771.06,-136.38 770.28,-136.11 769.55,-135.84 768.82,-135.57 768.13,-135.29 767.49,-135.02 766.84,-134.74 766.24,-134.46 765.68,-134.18 765.13,-133.9 764.62,-133.61 764.15,-133.33 763.69,-133.04 763.27,-132.75 762.89,-132.46 762.52,-132.18 762.19,-131.89 761.91,-131.59 761.63,-131.3 761.4,-131.01 761.21,-130.72 761.02,-130.42 760.88,-130.13 760.79,-129.84 760.69,-129.54 760.65,-129.25 760.65,-128.95 760.65,-128.95 877.63,-128.95 877.63,-128.95"/>
<path fill="orange" stroke="black" stroke-width="0.5" d="M877.63,-128.95C877.63,-128.95 760.65,-128.95 760.65,-128.95 760.65,-128.66 760.69,-128.36 760.79,-128.07 760.88,-127.78 761.02,-127.48 761.21,-127.19 761.4,-126.9 761.63,-126.6 761.91,-126.31 762.19,-126.02 762.52,-125.73 762.89,-125.44 763.27,-125.15 763.69,-124.87 764.15,-124.58 764.62,-124.29 765.13,-124.01 765.68,-123.73 766.24,-123.45 766.84,-123.17 767.49,-122.89 768.13,-122.61 768.82,-122.34 769.55,-122.07 770.28,-121.79 771.06,-121.52 771.88,-121.26 772.7,-120.99 773.56,-120.73 774.46,-120.47 775.36,-120.21 776.31,-119.95 777.29,-119.7 778.27,-119.45 779.3,-119.2 780.36,-118.95 781.42,-118.71 782.53,-118.47 783.67,-118.23 784.81,-117.99 785.99,-117.76 787.2,-117.53 788.41,-117.31 789.66,-117.08 790.95,-116.87 792.24,-116.65 793.56,-116.43 794.91,-116.23 796.26,-116.02 797.65,-115.81 799.07,-115.62 800.49,-115.42 801.94,-115.23 803.42,-115.04 804.89,-114.85 806.4,-114.67 807.94,-114.5 809.48,-114.32 811.04,-114.15 812.64,-113.99 814.23,-113.82 815.84,-113.67 817.49,-113.51 819.13,-113.36 820.79,-113.22 822.48,-113.08 824.17,-112.94 825.88,-112.81 827.61,-112.68 829.34,-112.56 831.09,-112.44 832.86,-112.32 834.63,-112.21 836.41,-112.1 838.22,-112.01 840.02,-111.91 841.84,-111.81 843.67,-111.73 845.5,-111.64 847.35,-111.56 849.2,-111.49 851.06,-111.42 852.93,-111.36 854.8,-111.3 856.68,-111.24 858.57,-111.19 860.46,-111.15 862.36,-111.1 864.26,-111.07 866.16,-111.04 868.07,-111.01 869.97,-110.99 871.89,-110.98 873.8,-110.96 875.71,-110.95 877.63,-110.95 879.54,-110.95 881.45,-110.96 883.37,-110.98 885.28,-110.99 887.19,-111.01 889.09,-111.04 891,-111.07 892.9,-111.1 894.79,-111.15 896.68,-111.19 898.57,-111.24 900.45,-111.3 902.33,-111.36 904.19,-111.42 906.05,-111.49 907.91,-111.56 909.75,-111.64 911.58,-111.73 913.42,-111.81 915.23,-111.91 917.04,-112.01 918.84,-112.1 920.62,-112.21 922.39,-112.32 924.16,-112.44 925.91,-112.56 927.64,-112.68 929.37,-112.81 931.08,-112.94 932.77,-113.08 934.46,-113.22 936.12,-113.36 937.77,-113.51 939.41,-113.67 941.02,-113.82 942.62,-113.99 944.21,-114.15 945.77,-114.32 947.31,-114.5 948.85,-114.67 950.36,-114.85 951.84,-115.04 953.32,-115.23 954.77,-115.42 956.18,-115.62 957.6,-115.81 958.99,-116.02 960.34,-116.23 961.7,-116.43 963.02,-116.65 964.3,-116.87 965.59,-117.08 966.84,-117.31 968.05,-117.53 969.27,-117.76 970.44,-117.99 971.58,-118.23 972.73,-118.47 973.83,-118.71 974.89,-118.95 975.95,-119.2 976.98,-119.45 977.96,-119.7 978.95,-119.95 979.89,-120.21 980.79,-120.47 981.69,-120.73 982.56,-120.99 983.37,-121.26 984.19,-121.52 984.97,-121.79 985.7,-122.07 986.43,-122.34 987.12,-122.61 987.77,-122.89 988.41,-123.17 989.01,-123.45 989.57,-123.73 990.12,-124.01 990.63,-124.29 991.1,-124.58 991.56,-124.87 991.98,-125.15 992.36,-125.44 992.73,-125.73 993.06,-126.02 993.34,-126.31 993.62,-126.6 993.85,-126.9 994.04,-127.19 994.23,-127.48 994.37,-127.78 994.46,-128.07 994.56,-128.36 994.61,-128.66 994.61,-128.95 994.61,-128.95 877.63,-128.95 877.63,-128.95"/>
<ellipse fill="none" stroke="black" cx="877.63" cy="-128.95" rx="116.98" ry="18"/>
<text text-anchor="middle" x="877.63" y="-125.25" font-family="Times,serif" font-size="14.00">callback&#45;ext&#45;cats&#45;effect</text>
</g>
<!-- catsC&#45;&gt;catsEffectC -->
<g id="edge14" class="edge">
<title>catsC&#45;&gt;catsEffectC</title>
<path fill="none" stroke="black" d="M774.24,-197.48C798.31,-181.76 830.22,-160.91 852.19,-146.56"/>
<polygon fill="black" stroke="black" points="772.21,-194.62 765.75,-203.02 776.04,-200.48 772.21,-194.62"/>
</g>
<!-- util&#45;&gt;coreGeneric -->
<g id="edge2" class="edge">
<title>util&#45;&gt;coreGeneric</title>
<path fill="none" stroke="black" d="M351.7,-361.05C341.99,-350.9 330.62,-339.02 321.61,-329.61"/>
<polygon fill="black" stroke="black" points="349.3,-363.6 358.74,-368.4 354.36,-358.76 349.3,-363.6"/>
</g>
<!-- util&#45;&gt;callback -->
<g id="edge3" class="edge">
<title>util&#45;&gt;callback</title>
<path fill="none" stroke="black" d="M393.66,-360.94C403.52,-350.63 415.07,-338.56 424.12,-329.1"/>
<polygon fill="black" stroke="black" points="390.89,-358.76 386.51,-368.4 395.95,-363.6 390.89,-358.76"/>
</g>
<!-- facade -->
<g id="node16" class="node">
<title>facade</title>
<ellipse fill="lightgrey" stroke="black" cx="167.63" cy="-383.91" rx="40.89" ry="18"/>
<text text-anchor="middle" x="167.63" y="-380.21" font-family="Times,serif" font-size="14.00">facade</text>
</g>
<!-- facade&#45;&gt;facadeTest -->
<g id="edge4" class="edge">
<title>facade&#45;&gt;facadeTest</title>
<path fill="none" stroke="black" d="M149.81,-358.46C142.98,-349.08 135.33,-338.58 129.1,-330.03"/>
<polygon fill="black" stroke="black" points="147.08,-360.65 155.8,-366.67 152.74,-356.53 147.08,-360.65"/>
</g>
<!-- facade&#45;&gt;coreGeneric -->
<g id="edge6" class="edge">
<title>facade&#45;&gt;coreGeneric</title>
<path fill="none" stroke="black" d="M202.78,-365.08C225.23,-353.69 254.05,-339.07 275.46,-328.21"/>
<polygon fill="black" stroke="black" points="200.92,-362.09 193.58,-369.74 204.08,-368.34 200.92,-362.09"/>
</g>
</g>
</svg>
