<?xml version="1.0" encoding="UTF-8" standalone="no"?>
<!DOCTYPE svg PUBLIC "-//W3C//DTD SVG 1.1//EN"
 "http://www.w3.org/Graphics/SVG/1.1/DTD/svg11.dtd">
<!-- Generated by graphviz version 2.47.3 (0)
 -->
<!-- Title: G Pages: 1 -->
<svg width="453pt" height="365pt"
 viewBox="0.00 0.00 453.00 365.00" xmlns="http://www.w3.org/2000/svg" xmlns:xlink="http://www.w3.org/1999/xlink">
<g id="graph0" class="graph" transform="scale(1 1) rotate(0) translate(4 361)">
<title>G</title>
<polygon fill="white" stroke="transparent" points="-4,4 -4,-361 449,-361 449,4 -4,4"/>
<!-- start -->
<g id="node1" class="node">
<title>start</title>
<ellipse fill="none" stroke="black" cx="260" cy="-339" rx="27" ry="18"/>
<text text-anchor="middle" x="260" y="-335.3" font-family="Times,serif" font-size="14.00">∅</text>
</g>
<!-- FromThunk -->
<g id="node2" class="node">
<title>FromThunk</title>
<ellipse fill="none" stroke="black" cx="142" cy="-207" rx="27" ry="18"/>
</g>
<!-- start&#45;&gt;FromThunk -->
<g id="edge2" class="edge">
<title>start&#45;&gt;FromThunk</title>
<path fill="none" stroke="black" d="M246.59,-323.37C240.86,-317.1 234.09,-309.7 228,-303 205.47,-278.23 179.71,-249.75 162.3,-230.49"/>
<polygon fill="black" stroke="black" points="164.68,-227.91 155.38,-222.83 159.49,-232.6 164.68,-227.91"/>
<text text-anchor="start" x="228" y="-291.8" font-family="Times,serif" font-size="14.00">.apply</text>
<text text-anchor="start" x="228" y="-276.8" font-family="Times,serif" font-size="14.00">.callback</text>
<text text-anchor="start" x="228" y="-261.8" font-family="Times,serif" font-size="14.00">.props</text>
<text text-anchor="start" x="228" y="-246.8" font-family="Times,serif" font-size="14.00">.state</text>
</g>
<!-- Const -->
<g id="node4" class="node">
<title>Const</title>
<ellipse fill="none" stroke="black" cx="378" cy="-207" rx="37.89" ry="18"/>
<text text-anchor="middle" x="378" y="-203.3" font-family="Times,serif" font-size="14.00">Const</text>
</g>
<!-- start&#45;&gt;Const -->
<g id="edge1" class="edge">
<title>start&#45;&gt;Const</title>
<path fill="none" stroke="black" d="M273.54,-323.09C293.83,-300.72 332.35,-258.29 356.52,-231.67"/>
<polygon fill="black" stroke="black" points="359.39,-233.71 363.52,-223.95 354.21,-229 359.39,-233.71"/>
<text text-anchor="start" x="344" y="-276.8" font-family="Times,serif" font-size="14.00">.constByValue</text>
<text text-anchor="start" x="344" y="-261.8" font-family="Times,serif" font-size="14.00">.constByNeed</text>
</g>
<!-- FromThunk&#45;&gt;FromThunk -->
<g id="edge3" class="edge">
<title>FromThunk&#45;&gt;FromThunk</title>
<path fill="none" stroke="black" d="M165.61,-216.15C176.97,-217.28 187,-214.23 187,-207 187,-202.14 182.47,-199.18 176.06,-198.09"/>
<polygon fill="black" stroke="black" points="175.69,-194.58 165.61,-197.85 175.53,-201.58 175.69,-194.58"/>
<text text-anchor="middle" x="254.5" y="-203.3" font-family="Times,serif" font-size="14.00">.map[B](f: A =&gt; B)</text>
</g>
<!-- FromThunkReusability -->
<g id="node3" class="node">
<title>FromThunkReusability</title>
<ellipse fill="none" stroke="black" cx="142" cy="-105" rx="27" ry="18"/>
</g>
<!-- FromThunk&#45;&gt;FromThunkReusability -->
<g id="edge4" class="edge">
<title>FromThunk&#45;&gt;FromThunkReusability</title>
<path fill="none" stroke="black" d="M142,-188.58C142,-173.38 142,-151.07 142,-133.46"/>
<polygon fill="black" stroke="black" points="145.5,-133.22 142,-123.22 138.5,-133.22 145.5,-133.22"/>
<text text-anchor="start" x="142" y="-159.8" font-family="Times,serif" font-size="14.00">.withReuse</text>
<text text-anchor="start" x="142" y="-144.8" font-family="Times,serif" font-size="14.00">.withoutReuse</text>
</g>
<!-- Px -->
<g id="node5" class="node">
<title>Px</title>
<ellipse fill="none" stroke="black" cx="27" cy="-18" rx="27" ry="18"/>
<text text-anchor="middle" x="27" y="-14.3" font-family="Times,serif" font-size="14.00">Px</text>
</g>
<!-- FromThunkReusability&#45;&gt;Px -->
<g id="edge5" class="edge">
<title>FromThunkReusability&#45;&gt;Px</title>
<path fill="none" stroke="black" d="M115.57,-100.5C94.25,-96.37 64.82,-87.56 46,-69 39.7,-62.79 35.46,-54.27 32.62,-46.03"/>
<polygon fill="black" stroke="black" points="35.94,-44.92 29.8,-36.29 29.21,-46.87 35.94,-44.92"/>
<text text-anchor="middle" x="92" y="-57.8" font-family="Times,serif" font-size="14.00">.autoRefresh</text>
</g>
<!-- ThunkM -->
<g id="node6" class="node">
<title>ThunkM</title>
<ellipse fill="none" stroke="black" cx="142" cy="-18" rx="48.99" ry="18"/>
<text text-anchor="middle" x="142" y="-14.3" font-family="Times,serif" font-size="14.00">ThunkM</text>
</g>
<!-- FromThunkReusability&#45;&gt;ThunkM -->
<g id="edge6" class="edge">
<title>FromThunkReusability&#45;&gt;ThunkM</title>
<path fill="none" stroke="black" d="M142,-86.8C142,-75.16 142,-59.55 142,-46.24"/>
<polygon fill="black" stroke="black" points="145.5,-46.18 142,-36.18 138.5,-46.18 145.5,-46.18"/>
<text text-anchor="middle" x="198.5" y="-57.8" font-family="Times,serif" font-size="14.00">.manualRefresh</text>
</g>
<!-- Var -->
<g id="node7" class="node">
<title>Var</title>
<ellipse fill="none" stroke="black" cx="278" cy="-18" rx="27" ry="18"/>
<text text-anchor="middle" x="278" y="-14.3" font-family="Times,serif" font-size="14.00">Var</text>
</g>
<!-- FromThunkReusability&#45;&gt;Var -->
<g id="edge7" class="edge">
<title>FromThunkReusability&#45;&gt;Var</title>
<path fill="none" stroke="black" d="M169.07,-102.04C194.34,-98.87 231.72,-90.61 256,-69 262.93,-62.84 267.77,-54.09 271.11,-45.63"/>
<polygon fill="black" stroke="black" points="274.48,-46.6 274.38,-36.01 267.85,-44.35 274.48,-46.6"/>
<text text-anchor="middle" x="322" y="-57.8" font-family="Times,serif" font-size="14.00">.manualUpdate</text>
</g>
</g>
</svg>
